<svg width="43" height="30" viewBox="0 0 43 30" fill="none" xmlns="http://www.w3.org/2000/svg">
<g clip-path="url(#clip0_2299_51632)" filter="url(#filter0_d_2299_51632)">
<path fill-rule="evenodd" clip-rule="evenodd" d="M41 23.75C41 25.5375 39.5375 27 37.75 27H5.25C3.4625 27 2 25.5375 2 23.75V4.25C2 2.4625 3.4625 1 5.25 1H37.75C39.5375 1 41 2.4625 41 4.25V23.75Z" fill="white"/>
<path d="M37.75 1H5.25C3.4625 1 2 2.4625 2 4.25V23.75C2 25.5375 3.4625 27 5.25 27H37.75C39.5375 27 41 25.5375 41 23.75V4.25C41 2.4625 39.5375 1 37.75 1ZM37.75 1.65C39.1839 1.65 40.35 2.8161 40.35 4.25V23.75C40.35 25.1839 39.1839 26.35 37.75 26.35H5.25C3.8161 26.35 2.65 25.1839 2.65 23.75V4.25C2.65 2.8161 3.8161 1.65 5.25 1.65H37.75Z" fill="#E4E4E7"/>
<path d="M11.9117 12.56L12.7482 14.2998H11.0098L11.9117 12.56ZM27.2749 15.2856H24.3678V14.343H27.2749V13.4861H24.3678V12.715H27.2749V11.9864L29.4316 13.932L27.2749 15.8865V15.2856ZM30.287 13.2454L28.8619 11.8569H23.1426V16.1425H28.6725L30.2406 14.7368L31.8177 16.1425H33.2907L31.039 13.974L33.3576 11.8569H31.8184L30.287 13.2454ZM22.0492 11.8569H20.0538L18.5527 14.7286L16.9375 11.8569H14.9421V16.0142L12.8805 11.8569H11.0091L8.80458 16.1425H10.1536L10.6 15.1656H13.165L13.6783 16.1425H16.1581V12.654L17.9155 16.1425H19.0744L20.8227 12.7137V16.1425H22.0485L22.0492 11.8569ZM11.4682 16.0536L11.0196 17H7L10.1726 11H17.75L18.5147 12.325L19.2293 11H21.921H23.2778H29.4449L30.318 11.8238L31.2558 11H36L32.6316 13.993L35.8543 17H31.2636L30.2363 16.1165L29.2175 17H23.2778H21.921H12.8306L12.3377 16.0536H11.4682Z" fill="#129AD7"/>
</g>
<defs>
<filter id="filter0_d_2299_51632" x="0" y="0" width="43" height="30" filterUnits="userSpaceOnUse" color-interpolation-filters="sRGB">
<feFlood flood-opacity="0" result="BackgroundImageFix"/>
<feColorMatrix in="SourceAlpha" type="matrix" values="0 0 0 0 0 0 0 0 0 0 0 0 0 0 0 0 0 0 127 0" result="hardAlpha"/>
<feOffset dy="1"/>
<feGaussianBlur stdDeviation="1"/>
<feColorMatrix type="matrix" values="0 0 0 0 0 0 0 0 0 0 0 0 0 0 0 0 0 0 0.05 0"/>
<feBlend mode="normal" in2="BackgroundImageFix" result="effect1_dropShadow_2299_51632"/>
<feBlend mode="normal" in="SourceGraphic" in2="effect1_dropShadow_2299_51632" result="shape"/>
</filter>
<clipPath id="clip0_2299_51632">
<rect width="39" height="26" fill="white" transform="translate(2 1)"/>
</clipPath>
</defs>
</svg>
