<svg width="43" height="30" viewBox="0 0 43 30" fill="none" xmlns="http://www.w3.org/2000/svg">
<g clip-path="url(#clip0_2299_51635)" filter="url(#filter0_d_2299_51635)">
<path fill-rule="evenodd" clip-rule="evenodd" d="M40.5 23.75C40.5 25.5375 39.5375 26.5 37.75 26.5H5.25001C3.46251 26.5 2.5 25.5375 2.5 23.75L2.50001 4.25C2.50001 2.4625 3.46251 1.5 5.25001 1.5H37.75C39.5375 1.5 40.5 2.4625 40.5 4.25V23.75Z" fill="#152884"/>
<path fill-rule="evenodd" clip-rule="evenodd" d="M2.5 16.2556V23.7527C2.5 25.5402 3.46256 26.5001 5.25006 26.5001H37.5C39.2875 26.5001 40.5 25.5402 40.5 23.7527V17.1448C33.3942 14.7762 21.8791 11.3279 2.5 16.2556Z" fill="#FFED00"/>
<path fill-rule="evenodd" clip-rule="evenodd" d="M2.50001 13.7589L2.5 17.5543C21.8791 12.6273 33.3942 16.0755 40.5 18.4428V14.4791C35.5477 12.6422 21.6691 8.53032 2.50001 13.7589Z" fill="#EB212E"/>
<path fill-rule="evenodd" clip-rule="evenodd" d="M14.4202 11.5032C15.3946 8.81032 17.6247 6.48462 21.5 6.50997C25.3746 6.53597 27.959 8.74922 28.6565 11.6449C23.6632 11.1262 20.3346 11.0352 14.4202 11.5032Z" fill="#FFED00"/>
<path fill-rule="evenodd" clip-rule="evenodd" d="M13.2244 18.759L10.5873 22.6928H11.5448L12.3014 21.502H15.1763L15.9765 22.6928H17.0054L14.1955 18.759H13.2244ZM12.5678 21.0759H12.569L12.5665 21.0798L12.5678 21.0759ZM12.569 21.0759L13.3231 19.9287C13.4758 19.6921 13.6006 19.4379 13.6936 19.1721C13.8392 19.4535 14.0017 19.7259 14.1791 19.9878L14.896 21.0759H12.569ZM24.4238 22.6892V19.8429H25.1804V20.2738C25.3292 20.1042 25.5125 19.9683 25.7173 19.8741C25.8895 19.8084 26.0728 19.7753 26.2574 19.7772C26.5532 19.7779 26.8463 19.8292 27.1245 19.9287L26.834 20.3824C26.6357 20.3128 26.4271 20.2771 26.2165 20.2764C26.0455 20.2738 25.8765 20.3063 25.7186 20.372C25.5873 20.4227 25.4768 20.5156 25.4053 20.6365C25.311 20.8088 25.2623 21.0025 25.2649 21.1994V22.6899L24.4238 22.6892ZM30.6982 22.6617C31.0128 22.5902 31.3176 22.4823 31.6062 22.3393L31.5913 22.3471C31.614 22.4771 31.6719 22.5987 31.759 22.6981H32.6397C32.5422 22.6032 32.4688 22.4856 32.4265 22.3562C32.3771 22.0761 32.3583 21.7907 32.3719 21.506V20.8632C32.3791 20.7137 32.3648 20.5642 32.331 20.4186C32.279 20.2853 32.188 20.1703 32.069 20.0903C31.8883 19.9824 31.6894 19.909 31.4821 19.8739C31.1408 19.8095 30.7944 19.7809 30.4473 19.7874C30.0683 19.7829 29.6901 19.8167 29.3183 19.8875C29.0531 19.9304 28.7996 20.0286 28.574 20.1748C28.4044 20.297 28.2757 20.4673 28.2048 20.6636L29.0277 20.7286C29.107 20.5388 29.2572 20.3874 29.447 20.3068C29.7297 20.2132 30.028 20.1722 30.3257 20.1872C30.654 20.1683 30.9816 20.2242 31.2851 20.3503C31.4424 20.4264 31.5373 20.5908 31.5243 20.765V20.8905C31.0264 20.9756 30.5246 21.0309 30.0203 21.0569C29.6875 21.0796 29.4379 21.1056 29.2728 21.1297C29.066 21.1589 28.8633 21.2096 28.6676 21.2811C28.5045 21.3403 28.3563 21.4352 28.2334 21.558C28.1288 21.6581 28.0683 21.7959 28.067 21.9409C28.067 22.1788 28.212 22.3731 28.5071 22.5265C28.8022 22.6799 29.2214 22.7553 29.7674 22.7553C30.08 22.7573 30.392 22.7261 30.6982 22.6617ZM30.1588 21.4481C30.6209 21.4182 31.0811 21.3571 31.5355 21.2648L31.5361 21.437C31.5485 21.6093 31.5004 21.7802 31.3996 21.92C31.2482 22.0812 31.0551 22.1969 30.8413 22.2541C30.5605 22.3392 30.268 22.3802 29.9742 22.375C29.7187 22.388 29.4639 22.3444 29.228 22.2463C29.059 22.1598 28.9725 22.0526 28.9725 21.9239C28.9764 21.8335 29.0193 21.7497 29.0908 21.6951C29.1877 21.6184 29.3021 21.5664 29.4236 21.5436C29.6661 21.4942 29.9118 21.4624 30.1588 21.4481ZM21.6249 22.2728V22.6901L22.3802 22.6908V19.8444H21.5371V21.3726C21.5501 21.5682 21.5014 21.7632 21.398 21.9296C21.2771 22.0778 21.112 22.1838 20.9274 22.2325C20.698 22.3079 20.4575 22.345 20.2163 22.343C19.9986 22.3495 19.7815 22.3131 19.578 22.2358C19.4298 22.1831 19.3089 22.0746 19.2407 21.9329C19.1971 21.7671 19.1802 21.5949 19.1893 21.4233V19.8451H18.3463V21.6079C18.3398 21.7606 18.3567 21.914 18.3976 22.0616C18.4477 22.2033 18.538 22.3274 18.6576 22.4184C18.8279 22.5361 19.021 22.6186 19.2238 22.6602C19.4929 22.7259 19.7685 22.7577 20.0454 22.7558C20.7097 22.7558 21.2368 22.5946 21.6249 22.2728Z" fill="#152884"/>
<path d="M37.75 1H5.25C3.4625 1 2 2.4625 2 4.25V23.75C2 25.5375 3.4625 27 5.25 27H37.75C39.5375 27 41 25.5375 41 23.75V4.25C41 2.4625 39.5375 1 37.75 1ZM37.75 1.65C39.1839 1.65 40.35 2.8161 40.35 4.25V23.75C40.35 25.1839 39.1839 26.35 37.75 26.35H5.25C3.8161 26.35 2.65 25.1839 2.65 23.75V4.25C2.65 2.8161 3.8161 1.65 5.25 1.65H37.75Z" fill="#E4E4E7"/>
</g>
<defs>
<filter id="filter0_d_2299_51635" x="0" y="0" width="43" height="30" filterUnits="userSpaceOnUse" color-interpolation-filters="sRGB">
<feFlood flood-opacity="0" result="BackgroundImageFix"/>
<feColorMatrix in="SourceAlpha" type="matrix" values="0 0 0 0 0 0 0 0 0 0 0 0 0 0 0 0 0 0 127 0" result="hardAlpha"/>
<feOffset dy="1"/>
<feGaussianBlur stdDeviation="1"/>
<feColorMatrix type="matrix" values="0 0 0 0 0 0 0 0 0 0 0 0 0 0 0 0 0 0 0.05 0"/>
<feBlend mode="normal" in2="BackgroundImageFix" result="effect1_dropShadow_2299_51635"/>
<feBlend mode="normal" in="SourceGraphic" in2="effect1_dropShadow_2299_51635" result="shape"/>
</filter>
<clipPath id="clip0_2299_51635">
<rect width="39" height="26" fill="white" transform="translate(2 1)"/>
</clipPath>
</defs>
</svg>
