<svg width="248" height="148" viewBox="0 0 248 148" fill="none" xmlns="http://www.w3.org/2000/svg">
<g filter="url(#filter0_f_1_82)">
<ellipse cx="124" cy="133.595" rx="117" ry="7.8" fill="#71717A" fill-opacity="0.5"/>
</g>
<rect x="18.995" y="0.699993" width="210.6" height="132.6" rx="7.8" fill="#71717A"/>
<path d="M33.7484 99.8319L33.7853 98.8162L32.9267 99.361L32.7051 98.9732L33.6099 98.5023L32.7051 98.0314L32.9267 97.6436L33.7853 98.1884L33.7484 97.1728H34.1916L34.1547 98.1884L35.0133 97.6436L35.2349 98.0314L34.3301 98.5023L35.2349 98.9732L35.0133 99.361L34.1547 98.8162L34.1916 99.8319H33.7484ZM37.1609 99.8319L37.1978 98.8162L36.3392 99.361L36.1176 98.9732L37.0224 98.5023L36.1176 98.0314L36.3392 97.6436L37.1978 98.1884L37.1609 97.1728L37.6041 97.1728L37.5672 98.1884L38.4258 97.6436L38.6474 98.0314L37.7426 98.5023L38.6474 98.9732L38.4258 99.361L37.5672 98.8162L37.6041 99.8319L37.1609 99.8319ZM40.5734 99.8319L40.6103 98.8162L39.7517 99.361L39.5301 98.9732L40.4349 98.5023L39.5301 98.0314L39.7517 97.6436L40.6103 98.1884L40.5734 97.1728L41.0166 97.1728L40.9797 98.1884L41.8383 97.6436L42.0599 98.0314L41.1551 98.5023L42.0599 98.9732L41.8383 99.361L40.9797 98.8162L41.0166 99.8319L40.5734 99.8319ZM43.9859 99.8319L44.0228 98.8162L43.1642 99.361L42.9426 98.9732L43.8474 98.5023L42.9426 98.0314L43.1642 97.6436L44.0228 98.1884L43.9859 97.1728H44.4291L44.3922 98.1884L45.2508 97.6436L45.4724 98.0314L44.5676 98.5023L45.4724 98.9732L45.2508 99.361L44.3922 98.8162L44.4291 99.8319H43.9859ZM47.3984 99.8319L47.4353 98.8162L46.5767 99.361L46.3551 98.9732L47.2599 98.5023L46.3551 98.0314L46.5767 97.6436L47.4353 98.1884L47.3984 97.1728H47.8416L47.8047 98.1884L48.6633 97.6436L48.8849 98.0314L47.9801 98.5023L48.8849 98.9732L48.6633 99.361L47.8047 98.8162L47.8416 99.8319H47.3984ZM50.8109 99.8319L50.8478 98.8162L49.9892 99.361L49.7676 98.9732L50.6724 98.5023L49.7676 98.0314L49.9892 97.6436L50.8478 98.1884L50.8109 97.1728L51.2541 97.1728L51.2172 98.1884L52.0758 97.6436L52.2974 98.0314L51.3926 98.5023L52.2974 98.9732L52.0758 99.361L51.2172 98.8162L51.2541 99.8319L50.8109 99.8319ZM54.2234 99.8319L54.2603 98.8162L53.4017 99.361L53.1801 98.9732L54.0849 98.5023L53.1801 98.0314L53.4017 97.6436L54.2603 98.1884L54.2234 97.1728L54.6666 97.1728L54.6297 98.1884L55.4883 97.6436L55.7099 98.0314L54.8051 98.5023L55.7099 98.9732L55.4883 99.361L54.6297 98.8162L54.6666 99.8319L54.2234 99.8319ZM57.6359 99.8319L57.6728 98.8162L56.8142 99.361L56.5926 98.9732L57.4974 98.5023L56.5926 98.0314L56.8142 97.6436L57.6728 98.1884L57.6359 97.1728H58.0791L58.0422 98.1884L58.9008 97.6436L59.1224 98.0314L58.2176 98.5023L59.1224 98.9732L58.9008 99.361L58.0422 98.8162L58.0791 99.8319H57.6359ZM61.0484 99.8319L61.0853 98.8162L60.2267 99.361L60.0051 98.9732L60.9099 98.5023L60.0051 98.0314L60.2267 97.6436L61.0853 98.1884L61.0484 97.1728H61.4916L61.4547 98.1884L62.3133 97.6436L62.5349 98.0314L61.6301 98.5023L62.5349 98.9732L62.3133 99.361L61.4547 98.8162L61.4916 99.8319H61.0484ZM64.4609 99.8319L64.4978 98.8162L63.6392 99.361L63.4176 98.9732L64.3224 98.5023L63.4176 98.0314L63.6392 97.6436L64.4978 98.1884L64.4609 97.1728L64.9041 97.1728L64.8672 98.1884L65.7258 97.6436L65.9474 98.0314L65.0426 98.5023L65.9474 98.9732L65.7258 99.361L64.8672 98.8162L64.9041 99.8319L64.4609 99.8319ZM67.8734 99.8319L67.9104 98.8162L67.0517 99.361L66.8301 98.9732L67.7349 98.5023L66.8301 98.0314L67.0517 97.6436L67.9104 98.1884L67.8734 97.1728L68.3166 97.1728L68.2797 98.1884L69.1383 97.6436L69.3599 98.0314L68.4551 98.5023L69.3599 98.9732L69.1383 99.361L68.2797 98.8162L68.3166 99.8319L67.8734 99.8319ZM71.2859 99.8319L71.3229 98.8162L70.4642 99.361L70.2426 98.9732L71.1474 98.5023L70.2426 98.0314L70.4642 97.6436L71.3229 98.1884L71.2859 97.1728H71.7291L71.6922 98.1884L72.5508 97.6436L72.7724 98.0314L71.8676 98.5023L72.7724 98.9732L72.5508 99.361L71.6922 98.8162L71.7291 99.8319H71.2859Z" fill="white"/>
<path d="M35.1518 84.5637L35.2257 82.5324L33.5084 83.6219L33.0652 82.8463L34.8748 81.9046L33.0652 80.9628L33.5084 80.1872L35.2257 81.2767L35.1518 79.2455L36.0382 79.2455L35.9643 81.2767L37.6817 80.1872L38.1248 80.9628L36.3152 81.9046L38.1248 82.8463L37.6817 83.6219L35.9643 82.5324L36.0382 84.5637L35.1518 84.5637ZM41.6518 84.5637L41.7257 82.5324L40.0084 83.6219L39.5652 82.8463L41.3748 81.9046L39.5652 80.9628L40.0084 80.1872L41.7257 81.2767L41.6518 79.2455L42.5382 79.2455L42.4643 81.2767L44.1817 80.1872L44.6248 80.9628L42.8152 81.9046L44.6248 82.8463L44.1817 83.6219L42.4643 82.5324L42.5382 84.5637L41.6518 84.5637ZM48.1518 84.5637L48.2257 82.5324L46.5084 83.6219L46.0652 82.8463L47.8748 81.9046L46.0652 80.9628L46.5084 80.1872L48.2257 81.2767L48.1518 79.2455L49.0382 79.2455L48.9643 81.2767L50.6817 80.1872L51.1248 80.9628L49.3152 81.9046L51.1248 82.8463L50.6817 83.6219L48.9643 82.5324L49.0382 84.5637L48.1518 84.5637ZM54.6518 84.5637L54.7257 82.5324L53.0084 83.6219L52.5652 82.8463L54.3748 81.9046L52.5652 80.9628L53.0084 80.1872L54.7257 81.2767L54.6518 79.2455L55.5382 79.2455L55.4643 81.2767L57.1817 80.1872L57.6248 80.9628L55.8152 81.9046L57.6248 82.8463L57.1817 83.6219L55.4643 82.5324L55.5382 84.5637L54.6518 84.5637ZM64.8081 84.5637L64.8819 82.5324L63.1646 83.6219L62.7214 82.8463L64.5311 81.9046L62.7214 80.9628L63.1646 80.1872L64.8819 81.2767L64.8081 79.2455L65.6944 79.2455L65.6206 81.2767L67.3379 80.1872L67.7811 80.9628L65.9714 81.9046L67.7811 82.8463L67.3379 83.6219L65.6206 82.5324L65.6944 84.5637L64.8081 84.5637ZM71.3081 84.5637L71.3819 82.5324L69.6646 83.6219L69.2214 82.8463L71.0311 81.9046L69.2214 80.9628L69.6646 80.1872L71.3819 81.2767L71.3081 79.2455L72.1944 79.2455L72.1206 81.2767L73.8379 80.1872L74.2811 80.9628L72.4714 81.9046L74.2811 82.8463L73.8379 83.6219L72.1206 82.5324L72.1944 84.5637L71.3081 84.5637ZM77.8081 84.5637L77.8819 82.5324L76.1646 83.6219L75.7214 82.8463L77.5311 81.9046L75.7214 80.9628L76.1646 80.1872L77.8819 81.2767L77.8081 79.2455L78.6944 79.2455L78.6206 81.2767L80.3379 80.1872L80.7811 80.9628L78.9714 81.9046L80.7811 82.8463L80.3379 83.6219L78.6206 82.5324L78.6944 84.5637L77.8081 84.5637ZM84.3081 84.5637L84.3819 82.5324L82.6646 83.6219L82.2214 82.8463L84.0311 81.9046L82.2214 80.9628L82.6646 80.1872L84.3819 81.2767L84.3081 79.2455L85.1944 79.2455L85.1206 81.2767L86.8379 80.1872L87.2811 80.9628L85.4714 81.9046L87.2811 82.8463L86.8379 83.6219L85.1206 82.5324L85.1944 84.5637L84.3081 84.5637ZM94.4643 84.5637L94.5382 82.5324L92.8209 83.6219L92.3777 82.8463L94.1873 81.9046L92.3777 80.9628L92.8209 80.1872L94.5382 81.2767L94.4643 79.2455L95.3507 79.2455L95.2768 81.2767L96.9942 80.1872L97.4373 80.9628L95.6277 81.9046L97.4373 82.8463L96.9942 83.6219L95.2768 82.5324L95.3507 84.5637L94.4643 84.5637ZM100.964 84.5637L101.038 82.5324L99.3209 83.6219L98.8777 82.8463L100.687 81.9046L98.8777 80.9628L99.3209 80.1872L101.038 81.2767L100.964 79.2455L101.851 79.2455L101.777 81.2767L103.494 80.1872L103.937 80.9628L102.128 81.9046L103.937 82.8463L103.494 83.6219L101.777 82.5324L101.851 84.5637L100.964 84.5637ZM107.464 84.5637L107.538 82.5324L105.821 83.6219L105.378 82.8463L107.187 81.9046L105.378 80.9628L105.821 80.1872L107.538 81.2767L107.464 79.2455L108.351 79.2455L108.277 81.2767L109.994 80.1872L110.437 80.9628L108.628 81.9046L110.437 82.8463L109.994 83.6219L108.277 82.5324L108.351 84.5637L107.464 84.5637ZM113.964 84.5637L114.038 82.5324L112.321 83.6219L111.878 82.8463L113.687 81.9046L111.878 80.9628L112.321 80.1872L114.038 81.2767L113.964 79.2455L114.851 79.2455L114.777 81.2767L116.494 80.1872L116.937 80.9628L115.128 81.9046L116.937 82.8463L116.494 83.6219L114.777 82.5324L114.851 84.5637L113.964 84.5637ZM124.121 84.5637L124.194 82.5324L122.477 83.6219L122.034 82.8463L123.844 81.9046L122.034 80.9628L122.477 80.1872L124.194 81.2767L124.121 79.2455L125.007 79.2455L124.933 81.2767L126.65 80.1872L127.094 80.9628L125.284 81.9046L127.094 82.8463L126.65 83.6219L124.933 82.5324L125.007 84.5637L124.121 84.5637ZM130.621 84.5637L130.694 82.5324L128.977 83.6219L128.534 82.8463L130.344 81.9046L128.534 80.9628L128.977 80.1872L130.694 81.2767L130.621 79.2455L131.507 79.2455L131.433 81.2767L133.15 80.1872L133.594 80.9628L131.784 81.9046L133.594 82.8463L133.15 83.6219L131.433 82.5324L131.507 84.5637L130.621 84.5637ZM137.121 84.5637L137.194 82.5324L135.477 83.6219L135.034 82.8463L136.844 81.9046L135.034 80.9628L135.477 80.1872L137.194 81.2767L137.121 79.2455L138.007 79.2455L137.933 81.2767L139.65 80.1872L140.094 80.9628L138.284 81.9046L140.094 82.8463L139.65 83.6219L137.933 82.5324L138.007 84.5637L137.121 84.5637ZM143.621 84.5637L143.694 82.5324L141.977 83.6219L141.534 82.8463L143.344 81.9046L141.534 80.9628L141.977 80.1872L143.694 81.2767L143.621 79.2455L144.507 79.2455L144.433 81.2767L146.15 80.1872L146.594 80.9628L144.784 81.9046L146.594 82.8463L146.15 83.6219L144.433 82.5324L144.507 84.5637L143.621 84.5637Z" fill="white"/>
<path d="M32.803 114.9L32.803 111.118L35.0853 111.118L35.0853 111.524L33.2609 111.524L33.2609 112.802L34.9672 112.802L34.9672 113.209L33.2609 113.209L33.2609 114.494L35.1149 114.494V114.9L32.803 114.9ZM36.1324 111.118L37.1074 112.692H37.1369L38.1119 111.118L38.6511 111.118L37.4619 113.009L38.6511 114.9L38.1119 114.9L37.1369 113.356H37.1074L36.1324 114.9L35.5932 114.9L36.8119 113.009L35.5932 111.118L36.1324 111.118ZM39.2471 114.9L39.2471 111.118L40.5249 111.118C40.8216 111.118 41.0641 111.172 41.2525 111.279C41.4421 111.385 41.5824 111.528 41.6735 111.709C41.7646 111.89 41.8102 112.092 41.8102 112.315C41.8102 112.538 41.7646 112.74 41.6735 112.922C41.5837 113.105 41.4445 113.25 41.2562 113.358C41.0678 113.465 40.8265 113.519 40.5323 113.519L39.6164 113.519L39.6164 113.113L40.5176 113.113C40.7207 113.113 40.8838 113.077 41.0069 113.007C41.13 112.937 41.2193 112.842 41.2747 112.723C41.3313 112.602 41.3596 112.466 41.3596 112.315C41.3596 112.163 41.3313 112.028 41.2747 111.909C41.2193 111.789 41.1294 111.696 41.0051 111.628C40.8807 111.559 40.7158 111.524 40.5102 111.524L39.7051 111.524L39.7051 114.9H39.2471Z" fill="#FAFAFA"/>
<path d="M46.3484 112.832L46.3853 111.816L45.5267 112.361L45.3051 111.973L46.2099 111.502L45.3051 111.031L45.5267 110.644L46.3853 111.188L46.3484 110.173H46.7916L46.7547 111.188L47.6133 110.644L47.8349 111.031L46.9301 111.502L47.8349 111.973L47.6133 112.361L46.7547 111.816L46.7916 112.832H46.3484ZM49.5984 112.832L49.6353 111.816L48.7767 112.361L48.5551 111.973L49.4599 111.502L48.5551 111.031L48.7767 110.644L49.6353 111.188L49.5984 110.173H50.0416L50.0047 111.188L50.8633 110.644L51.0849 111.031L50.1801 111.502L51.0849 111.973L50.8633 112.361L50.0047 111.816L50.0416 112.832H49.5984ZM53.6148 109.951L52.0913 115.611L51.5927 115.611L53.1162 109.951L53.6148 109.951ZM55.1653 112.832L55.2022 111.816L54.3436 112.361L54.122 111.973L55.0268 111.502L54.122 111.031L54.3436 110.644L55.2022 111.188L55.1653 110.173H55.6085L55.5716 111.188L56.4302 110.644L56.6518 111.031L55.747 111.502L56.6518 111.973L56.4302 112.361L55.5716 111.816L55.6085 112.832H55.1653ZM58.4153 112.832L58.4522 111.816L57.5936 112.361L57.372 111.973L58.2768 111.502L57.372 111.031L57.5936 110.644L58.4522 111.188L58.4153 110.173H58.8585L58.8216 111.188L59.6802 110.644L59.9018 111.031L58.997 111.502L59.9018 111.973L59.6802 112.361L58.8216 111.816L58.8585 112.832H58.4153Z" fill="white"/>
<path d="M73.5462 112.3H73.0882C73.0611 112.168 73.0137 112.053 72.946 111.953C72.8795 111.853 72.7983 111.769 72.7023 111.702C72.6075 111.633 72.5022 111.581 72.3865 111.547C72.2708 111.512 72.1501 111.495 72.0246 111.495C71.7956 111.495 71.5881 111.553 71.4023 111.669C71.2176 111.784 71.0705 111.955 70.9609 112.18C70.8526 112.405 70.7984 112.682 70.7984 113.009C70.7984 113.337 70.8526 113.613 70.9609 113.838C71.0705 114.064 71.2176 114.234 71.4023 114.35C71.5881 114.465 71.7956 114.523 72.0246 114.523C72.1501 114.523 72.2708 114.506 72.3865 114.472C72.5022 114.437 72.6075 114.386 72.7023 114.318C72.7983 114.249 72.8795 114.165 72.946 114.065C73.0137 113.964 73.0611 113.849 73.0882 113.718L73.5462 113.718C73.5117 113.911 73.4489 114.084 73.3578 114.237C73.2667 114.39 73.1534 114.52 73.018 114.627C72.8826 114.733 72.7306 114.813 72.5619 114.869C72.3945 114.924 72.2154 114.952 72.0246 114.952C71.702 114.952 71.4152 114.873 71.164 114.715C70.9129 114.558 70.7153 114.334 70.5713 114.043C70.4273 113.753 70.3552 113.408 70.3552 113.009C70.3552 112.61 70.4273 112.266 70.5713 111.975C70.7153 111.685 70.9129 111.46 71.164 111.303C71.4152 111.145 71.702 111.067 72.0246 111.067C72.2154 111.067 72.3945 111.094 72.5619 111.15C72.7306 111.205 72.8826 111.286 73.018 111.393C73.1534 111.499 73.2667 111.628 73.3578 111.781C73.4489 111.933 73.5117 112.106 73.5462 112.3ZM74.4413 111.118L75.564 114.302H75.6083L76.7311 111.118L77.2112 111.118L75.8225 114.9H75.3498L73.9612 111.118L74.4413 111.118ZM80.6657 112.3H80.2077C80.1806 112.168 80.1333 112.053 80.0655 111.953C79.9991 111.853 79.9178 111.769 79.8218 111.702C79.727 111.633 79.6217 111.581 79.506 111.547C79.3903 111.512 79.2697 111.495 79.1441 111.495C78.9151 111.495 78.7077 111.553 78.5218 111.669C78.3371 111.784 78.19 111.955 78.0805 112.18C77.9721 112.405 77.918 112.682 77.918 113.009C77.918 113.337 77.9721 113.613 78.0805 113.838C78.19 114.064 78.3371 114.234 78.5218 114.35C78.7077 114.465 78.9151 114.523 79.1441 114.523C79.2697 114.523 79.3903 114.506 79.506 114.472C79.6217 114.437 79.727 114.386 79.8218 114.318C79.9178 114.249 79.9991 114.165 80.0655 114.065C80.1333 113.964 80.1806 113.849 80.2077 113.718L80.6657 113.718C80.6312 113.911 80.5684 114.084 80.4773 114.237C80.3862 114.39 80.273 114.52 80.1376 114.627C80.0021 114.733 79.8501 114.813 79.6815 114.869C79.514 114.924 79.3349 114.952 79.1441 114.952C78.8216 114.952 78.5347 114.873 78.2836 114.715C78.0324 114.558 77.8349 114.334 77.6908 114.043C77.5468 113.753 77.4748 113.408 77.4748 113.009C77.4748 112.61 77.5468 112.266 77.6908 111.975C77.8349 111.685 78.0324 111.46 78.2836 111.303C78.5347 111.145 78.8216 111.067 79.1441 111.067C79.3349 111.067 79.514 111.094 79.6815 111.15C79.8501 111.205 80.0021 111.286 80.1376 111.393C80.273 111.499 80.3862 111.628 80.4773 111.781C80.5684 111.933 80.6312 112.106 80.6657 112.3Z" fill="#FAFAFA"/>
<path d="M85.0484 112.832L85.0854 111.816L84.2267 112.361L84.0051 111.973L84.9099 111.502L84.0051 111.031L84.2267 110.644L85.0854 111.188L85.0484 110.173H85.4916L85.4547 111.188L86.3133 110.644L86.5349 111.031L85.6301 111.502L86.5349 111.973L86.3133 112.361L85.4547 111.816L85.4916 112.832H85.0484ZM88.2984 112.832L88.3354 111.816L87.4767 112.361L87.2551 111.973L88.1599 111.502L87.2551 111.031L87.4767 110.644L88.3354 111.188L88.2984 110.173H88.7416L88.7047 111.188L89.5633 110.644L89.7849 111.031L88.8801 111.502L89.7849 111.973L89.5633 112.361L88.7047 111.816L88.7416 112.832H88.2984ZM91.5484 112.832L91.5854 111.816L90.7267 112.361L90.5051 111.973L91.4099 111.502L90.5051 111.031L90.7267 110.644L91.5854 111.188L91.5484 110.173H91.9916L91.9547 111.188L92.8133 110.644L93.0349 111.031L92.1301 111.502L93.0349 111.973L92.8133 112.361L91.9547 111.816L91.9916 112.832H91.5484Z" fill="white"/>
<g filter="url(#filter1_d_1_82)">
<rect x="32.345" y="44.55" width="27.0205" height="20.436" rx="1.95" fill="url(#paint0_linear_1_82)"/>
</g>
<path d="M58.02 45.0375C58.1098 45.0375 58.1825 44.9648 58.1825 44.875C58.1825 44.7853 58.1098 44.7125 58.02 44.7125V45.0375ZM58.995 51.2125H59.1575L59.1575 50.8875H58.995L58.995 51.2125ZM33.7678 64.5907L33.6865 64.7314L33.6865 64.7314L33.7678 64.5907ZM32.703 46.0599L32.5482 46.0104L32.5482 46.0104L32.703 46.0599ZM40.145 50.8875L32.995 50.8875L32.995 51.2125L40.145 51.2125L40.145 50.8875ZM40.145 57.3875L32.995 57.3875L32.995 57.7125L40.145 57.7125L40.145 57.3875ZM51.195 57.7125L58.995 57.7125V57.3875L51.195 57.3875V57.7125ZM51.52 45.0375L58.02 45.0375V44.7125L51.52 44.7125V45.0375ZM45.345 45.0375L51.195 45.0375V44.7125L45.345 44.7125V45.0375ZM39.17 45.0375L45.02 45.0375V44.7125L39.17 44.7125V45.0375ZM45.1825 45.2L45.1825 45.525L45.5075 45.525L45.5075 45.2L45.1825 45.2ZM44.37 46.3375L41.12 46.3375V46.6625L44.37 46.6625V46.3375ZM39.9825 47.475L39.9825 61.775L40.3075 61.775L40.3075 47.475L39.9825 47.475ZM50.0575 61.775L50.0575 52.025L49.7325 52.025L49.7325 61.775L50.0575 61.775ZM50.87 51.2125L58.995 51.2125L58.995 50.8875L50.87 50.8875L50.87 51.2125ZM49.7325 61.775C49.7325 62.2238 49.3687 62.5875 48.92 62.5875L48.92 62.9125C49.5482 62.9125 50.0575 62.4032 50.0575 61.775L49.7325 61.775ZM39.9825 61.775C39.9825 62.4032 40.4918 62.9125 41.12 62.9125L41.12 62.5875C40.6713 62.5875 40.3075 62.2238 40.3075 61.775L39.9825 61.775ZM41.12 46.3375C40.4918 46.3375 39.9825 46.8468 39.9825 47.475L40.3075 47.475C40.3075 47.0263 40.6713 46.6625 41.12 46.6625V46.3375ZM50.0575 52.025C50.0575 51.5763 50.4213 51.2125 50.87 51.2125L50.87 50.8875C50.2418 50.8875 49.7325 51.3968 49.7325 52.025L50.0575 52.025ZM45.1825 45.525C45.1825 45.9737 44.8187 46.3375 44.37 46.3375V46.6625C44.9982 46.6625 45.5075 46.1532 45.5075 45.525L45.1825 45.525ZM45.1825 62.75L45.1825 64.7H45.5075L45.5075 62.75H45.1825ZM57.695 64.5375L34.2002 64.5375L34.2002 64.8625L57.695 64.8625L57.695 64.5375ZM33.8491 64.45C33.628 64.3223 33.3656 64.144 33.1607 63.9474C32.9479 63.7431 32.8325 63.5525 32.8325 63.4H32.5075C32.5075 63.6953 32.7134 63.9685 32.9357 64.1819C33.1659 64.4029 33.4523 64.5961 33.6865 64.7314L33.8491 64.45ZM32.8325 63.4L32.8325 46.2923H32.5075L32.5075 63.4H32.8325ZM32.8577 46.1094C32.9259 45.8964 33.0546 45.6218 33.2451 45.4037C33.4343 45.1871 33.6735 45.0375 33.97 45.0375V44.7125C33.5507 44.7125 33.2292 44.9278 33.0003 45.1899C32.7726 45.4505 32.6257 45.7684 32.5482 46.0104L32.8577 46.1094ZM33.97 45.0375L38.845 45.0375V44.7125L33.97 44.7125V45.0375ZM32.8325 46.2923C32.8325 46.2244 32.8399 46.1653 32.8577 46.1094L32.5482 46.0104C32.5175 46.1064 32.5075 46.2007 32.5075 46.2923H32.8325ZM34.2002 64.5375C34.0724 64.5375 33.9515 64.5091 33.8491 64.45L33.6865 64.7314C33.8462 64.8237 34.0252 64.8625 34.2002 64.8625L34.2002 64.5375ZM41.12 62.9125L48.92 62.9125L48.92 62.5875L41.12 62.5875L41.12 62.9125Z" fill="black"/>
<defs>
<filter id="filter0_f_1_82" x="0.499999" y="119.295" width="247" height="28.6" filterUnits="userSpaceOnUse" color-interpolation-filters="sRGB">
<feFlood flood-opacity="0" result="BackgroundImageFix"/>
<feBlend mode="normal" in="SourceGraphic" in2="BackgroundImageFix" result="shape"/>
<feGaussianBlur stdDeviation="3.25" result="effect1_foregroundBlur_1_82"/>
</filter>
<filter id="filter1_d_1_82" x="32.345" y="44.55" width="27.3455" height="20.761" filterUnits="userSpaceOnUse" color-interpolation-filters="sRGB">
<feFlood flood-opacity="0" result="BackgroundImageFix"/>
<feColorMatrix in="SourceAlpha" type="matrix" values="0 0 0 0 0 0 0 0 0 0 0 0 0 0 0 0 0 0 127 0" result="hardAlpha"/>
<feOffset dx="0.325" dy="0.325"/>
<feComposite in2="hardAlpha" operator="out"/>
<feColorMatrix type="matrix" values="0 0 0 0 0.604232 0 0 0 0 0.604232 0 0 0 0 0.604232 0 0 0 1 0"/>
<feBlend mode="normal" in2="BackgroundImageFix" result="effect1_dropShadow_1_82"/>
<feBlend mode="normal" in="SourceGraphic" in2="effect1_dropShadow_1_82" result="shape"/>
</filter>
<linearGradient id="paint0_linear_1_82" x1="58.67" y1="44.875" x2="32.995" y2="64.7" gradientUnits="userSpaceOnUse">
<stop stop-color="#D9D9D9"/>
<stop offset="0.347245" stop-color="#B0B0B0"/>
<stop offset="0.524405" stop-color="#CECECE"/>
<stop offset="0.776262" stop-color="#BCBCBC"/>
<stop offset="1" stop-color="#A2A2A2"/>
</linearGradient>
</defs>
</svg>
