<svg width="43" height="30" viewBox="0 0 43 30" fill="none" xmlns="http://www.w3.org/2000/svg">
<g clip-path="url(#clip0_2299_51634)" filter="url(#filter0_d_2299_51634)">
<path fill-rule="evenodd" clip-rule="evenodd" d="M41 23.75C41 25.5375 39.5375 27 37.75 27H5.25C3.4625 27 2 25.5375 2 23.75V4.25C2 2.4625 3.4625 1 5.25 1H37.75C39.5375 1 41 2.4625 41 4.25V23.75Z" fill="white"/>
<path d="M37.75 1H5.25C3.4625 1 2 2.4625 2 4.25V23.75C2 25.5375 3.4625 27 5.25 27H37.75C39.5375 27 41 25.5375 41 23.75V4.25C41 2.4625 39.5375 1 37.75 1ZM37.75 1.65C39.1839 1.65 40.35 2.8161 40.35 4.25V23.75C40.35 25.1839 39.1839 26.35 37.75 26.35H5.25C3.8161 26.35 2.65 25.1839 2.65 23.75V4.25C2.65 2.8161 3.8161 1.65 5.25 1.65H37.75Z" fill="#E4E4E7"/>
<path fill-rule="evenodd" clip-rule="evenodd" d="M19.6863 19.9093C19.8493 19.9154 20.1406 19.9264 20.1738 19.9337C21.3182 19.9337 23.3933 19.8992 23.5165 19.881C25.791 19.5616 27.4712 18.3937 28.5211 16.346C28.8261 15.7516 28.9942 15.1097 29.036 14.4397C29.1559 12.5178 28.5081 10.9008 27.0795 9.61041C26.1475 8.76838 25.0396 8.28089 23.802 8.08342C23.6909 8.06546 23.5784 8.05607 23.4658 8.04666C23.4027 8.04139 23.3396 8.03612 23.2767 8.02933C23.2323 8.02477 21.3404 8 20.196 8C20.1255 8.00907 19.9163 8.01908 19.7169 8.02862C19.5439 8.0369 19.3782 8.04483 19.3168 8.05149C17.881 8.20986 16.6434 8.78533 15.6371 9.82613C14.8296 10.6616 14.333 11.6633 14.1251 12.8058C14.0941 12.9776 14.0758 13.1514 14.0576 13.3253C14.0483 13.414 14.039 13.5027 14.028 13.5912C14.0243 13.6203 14.0167 13.6492 14.009 13.6779C14.0059 13.6896 14.0028 13.7013 14 13.713V14.2892C14.0059 14.3332 14.0119 14.3773 14.018 14.4214C14.0302 14.5096 14.0424 14.5978 14.0528 14.6861C14.191 15.8709 14.6563 16.9123 15.4312 17.8156C16.1813 18.6903 17.1074 19.3022 18.2069 19.6489C18.654 19.7904 19.1108 19.8803 19.5801 19.9051C19.5914 19.9057 19.6316 19.9072 19.6863 19.9093ZM20.0989 8.4784C23.1575 8.51425 25.5298 11.0273 25.505 13.9594C25.5272 16.9248 23.0878 19.4626 19.9758 19.4326C17.0221 19.4039 14.5528 17.0316 14.5534 13.9509C14.5541 10.8755 17.0476 8.44321 20.0989 8.4784Z" fill="#074C95"/>
<path fill-rule="evenodd" clip-rule="evenodd" d="M21.2935 17.1496C21.2935 15.0171 21.2935 12.8958 21.2935 10.7725C22.2372 11.0748 23.4044 12.1691 23.478 13.799C23.5543 15.5007 22.4164 16.7566 21.2935 17.1496Z" fill="#074C95"/>
<path fill-rule="evenodd" clip-rule="evenodd" d="M18.7746 17.1522C17.7338 16.7879 16.4961 15.5789 16.5926 13.7554C16.6727 12.2427 17.7435 11.1178 18.7746 10.7698V17.1522Z" fill="#074C95"/>
</g>
<defs>
<filter id="filter0_d_2299_51634" x="0" y="0" width="43" height="30" filterUnits="userSpaceOnUse" color-interpolation-filters="sRGB">
<feFlood flood-opacity="0" result="BackgroundImageFix"/>
<feColorMatrix in="SourceAlpha" type="matrix" values="0 0 0 0 0 0 0 0 0 0 0 0 0 0 0 0 0 0 127 0" result="hardAlpha"/>
<feOffset dy="1"/>
<feGaussianBlur stdDeviation="1"/>
<feColorMatrix type="matrix" values="0 0 0 0 0 0 0 0 0 0 0 0 0 0 0 0 0 0 0.05 0"/>
<feBlend mode="normal" in2="BackgroundImageFix" result="effect1_dropShadow_2299_51634"/>
<feBlend mode="normal" in="SourceGraphic" in2="effect1_dropShadow_2299_51634" result="shape"/>
</filter>
<clipPath id="clip0_2299_51634">
<rect width="39" height="26" fill="white" transform="translate(2 1)"/>
</clipPath>
</defs>
</svg>
