<svg width="43" height="30" viewBox="0 0 43 30" fill="none" xmlns="http://www.w3.org/2000/svg">
<g clip-path="url(#clip0_2299_51633)" filter="url(#filter0_d_2299_51633)">
<path fill-rule="evenodd" clip-rule="evenodd" d="M41 23.75C41 25.5375 39.5375 27 37.75 27H5.25C3.4625 27 2 25.5375 2 23.75V4.25C2 2.4625 3.4625 1 5.25 1H37.75C39.5375 1 41 2.4625 41 4.25V23.75Z" fill="white"/>
<path fill-rule="evenodd" clip-rule="evenodd" d="M40.3706 19V23.5634C40.3706 23.9821 40.2848 24.3812 40.1303 24.7445C39.9751 25.1077 39.7524 25.4363 39.4768 25.7119C39.2012 25.9876 38.8732 26.2102 38.5094 26.3654C38.1449 26.52 37.7464 26.6057 37.3283 26.6057H23.6642H10L40.3706 19Z" fill="#F16821"/>
<path fill-rule="evenodd" clip-rule="evenodd" d="M22.4494 11.7783C21.1128 11.7783 20.0276 12.8227 20.0276 14.1109C20.0276 15.4807 21.065 16.5057 22.4494 16.5057C23.7978 16.5057 24.8623 15.4683 24.8623 14.1393C24.8623 12.8151 23.8048 11.7783 22.4494 11.7783Z" fill="url(#paint0_linear_2299_51633)"/>
<path fill-rule="evenodd" clip-rule="evenodd" d="M16.123 14.108C16.123 15.4557 17.1819 16.5008 18.5434 16.5008C18.9285 16.5008 19.2588 16.4253 19.664 16.2328V15.1801C19.3052 15.5381 18.9901 15.6822 18.5843 15.6822C17.6833 15.6822 17.0434 15.0291 17.0434 14.1011C17.0434 13.2209 17.7041 12.5269 18.5434 12.5269C18.9694 12.5269 19.2921 12.6779 19.664 13.0429V11.9902C19.272 11.7907 18.9486 11.7083 18.5642 11.7083C17.2096 11.7083 16.123 12.7749 16.123 14.108ZM27.1373 16.5143H26.656L24.7106 11.8111H25.6864L26.9094 14.8916L28.147 11.8111H29.1173L27.1373 16.5143ZM29.5232 11.8111V16.3972L32.0593 16.3979V15.6209H30.4166V14.3833H31.9977V13.6062H30.4166V12.5882H32.0593V11.8111H29.5232ZM36 16.3972L34.556 14.465C35.2292 14.3286 35.6011 13.8673 35.6011 13.1665C35.6011 12.3063 35.011 11.8111 33.9791 11.8111H32.6522V16.3972H33.5462V14.555H33.6633L34.9009 16.3972H36ZM34.6807 13.2161C34.6807 13.6766 34.3766 13.9246 33.8074 13.9246H33.5463V12.5353H33.8205C34.3766 12.536 34.6807 12.7694 34.6807 13.2161ZM14.26 16.5088C13.5786 16.5088 13.0841 16.2408 12.672 15.6355L13.2496 15.0787C13.4553 15.4769 13.7995 15.6902 14.2247 15.6902C14.6243 15.6902 14.9193 15.4152 14.9193 15.044C14.9193 14.8515 14.8314 14.6867 14.6527 14.5689C14.5627 14.5142 14.384 14.4311 14.0336 14.3085C13.1949 14.0059 12.9061 13.6832 12.9061 13.0502C12.9061 12.3015 13.5252 11.7378 14.3355 11.7378C14.8376 11.7378 15.2989 11.9095 15.6832 12.2461L15.2164 12.8583C14.9817 12.5965 14.7628 12.4864 14.4941 12.4864C14.1097 12.4864 13.8265 12.7067 13.8265 12.9955C13.8265 13.2434 13.9865 13.3736 14.5218 13.573C15.5392 13.9449 15.8418 14.2746 15.8418 15.0032C15.8418 15.8889 15.188 16.5088 14.26 16.5088ZM12.334 11.8111H11.4413V16.3972H12.334V11.8111ZM11.0292 14.1076C11.0292 12.753 10.0181 11.8111 8.56784 11.8111H7.25476V16.3972H8.56023C9.25486 16.3972 9.75696 16.2324 10.1967 15.8674C10.7196 15.4353 11.0292 14.7815 11.0292 14.1076ZM9.61295 15.2565C9.92252 14.9816 10.1074 14.5418 10.1074 14.1013C10.1074 13.6616 9.92252 13.2349 9.61295 12.9593C9.31723 12.6913 8.96679 12.5881 8.3892 12.5881H8.14819V15.6208H8.3892C8.96679 15.6208 9.33108 15.5107 9.61295 15.2565Z" fill="#221F1F"/>
<path fill-rule="evenodd" clip-rule="evenodd" d="M20.2984 14.3872C20.2984 13.099 21.3836 12.0547 22.7202 12.0547C23.3359 12.0547 23.8893 12.2687 24.311 12.626C23.8726 12.1052 23.2057 11.7783 22.4439 11.7783C21.1073 11.7783 20.022 12.8227 20.022 14.1109C20.022 14.8637 20.3358 15.5119 20.8476 15.9434C20.502 15.5313 20.2984 14.9932 20.2984 14.3872Z" fill="#A3310B"/>
<path d="M37.75 1H5.25C3.4625 1 2 2.4625 2 4.25V23.75C2 25.5375 3.4625 27 5.25 27H37.75C39.5375 27 41 25.5375 41 23.75V4.25C41 2.4625 39.5375 1 37.75 1ZM37.75 1.65C39.1839 1.65 40.35 2.8161 40.35 4.25V23.75C40.35 25.1839 39.1839 26.35 37.75 26.35H5.25C3.8161 26.35 2.65 25.1839 2.65 23.75V4.25C2.65 2.8161 3.8161 1.65 5.25 1.65H37.75Z" fill="#E4E4E7"/>
</g>
<defs>
<filter id="filter0_d_2299_51633" x="0" y="0" width="43" height="30" filterUnits="userSpaceOnUse" color-interpolation-filters="sRGB">
<feFlood flood-opacity="0" result="BackgroundImageFix"/>
<feColorMatrix in="SourceAlpha" type="matrix" values="0 0 0 0 0 0 0 0 0 0 0 0 0 0 0 0 0 0 127 0" result="hardAlpha"/>
<feOffset dy="1"/>
<feGaussianBlur stdDeviation="1"/>
<feColorMatrix type="matrix" values="0 0 0 0 0 0 0 0 0 0 0 0 0 0 0 0 0 0 0.05 0"/>
<feBlend mode="normal" in2="BackgroundImageFix" result="effect1_dropShadow_2299_51633"/>
<feBlend mode="normal" in="SourceGraphic" in2="effect1_dropShadow_2299_51633" result="shape"/>
</filter>
<linearGradient id="paint0_linear_2299_51633" x1="18.8773" y1="13.6065" x2="21.7761" y2="17.855" gradientUnits="userSpaceOnUse">
<stop stop-color="#E25416"/>
<stop offset="1" stop-color="#F9A020"/>
</linearGradient>
<clipPath id="clip0_2299_51633">
<rect width="39" height="26" fill="white" transform="translate(2 1)"/>
</clipPath>
</defs>
</svg>
