<svg width="43" height="30" viewBox="0 0 43 30" fill="none" xmlns="http://www.w3.org/2000/svg">
<g clip-path="url(#clip0_2299_51631)" filter="url(#filter0_d_2299_51631)">
<path fill-rule="evenodd" clip-rule="evenodd" d="M41 23.75C41 25.5375 39.5375 27 37.75 27H5.25C3.4625 27 2 25.5375 2 23.75V4.25C2 2.4625 3.4625 1 5.25 1H37.75C39.5375 1 41 2.4625 41 4.25V23.75Z" fill="white"/>
<path d="M37.75 1H5.25C3.4625 1 2 2.4625 2 4.25V23.75C2 25.5375 3.4625 27 5.25 27H37.75C39.5375 27 41 25.5375 41 23.75V4.25C41 2.4625 39.5375 1 37.75 1ZM37.75 1.65C39.1839 1.65 40.35 2.8161 40.35 4.25V23.75C40.35 25.1839 39.1839 26.35 37.75 26.35H5.25C3.8161 26.35 2.65 25.1839 2.65 23.75V4.25C2.65 2.8161 3.8161 1.65 5.25 1.65H37.75Z" fill="#E4E4E7"/>
<path fill-rule="evenodd" clip-rule="evenodd" d="M28.305 10.3376V16.5944L29.3907 17.0447L28.8769 18.2785L27.8029 17.8324C27.5617 17.7279 27.3984 17.568 27.2741 17.3883C27.1552 17.2038 27.0664 16.9517 27.0664 16.6122V10.3383L28.305 10.3376ZM32.8238 13.1335C32.612 13.1335 32.4091 13.1677 32.2192 13.2312L31.7969 11.9659C32.1276 11.8559 32.4747 11.7992 32.8238 11.7999C34.3917 11.7999 35.7001 12.9135 36 14.3933L34.6923 14.6598C34.5161 13.7887 33.7461 13.1335 32.8238 13.1335ZM30.6765 17.4645L31.5599 16.465C31.165 16.1159 30.917 15.6055 30.917 15.0364C30.917 14.468 31.1657 13.9583 31.5599 13.6092L30.6758 12.6097C30.0056 13.2034 29.5827 14.071 29.5827 15.0364C29.582 16.0025 30.0056 16.8708 30.6765 17.4645ZM34.6923 15.4228C34.5146 16.2925 33.7454 16.947 32.8237 16.947C32.6181 16.947 32.4138 16.9142 32.2184 16.8486L31.7948 18.1139C32.1262 18.2246 32.4739 18.2813 32.8237 18.2806C34.3903 18.2806 35.698 17.1684 35.9999 15.6899L34.6923 15.4228ZM20.0704 14.9901C20.0977 13.2015 21.5707 11.7729 23.3587 11.8003C24.8761 11.8235 26.1332 12.8866 26.4631 14.3001L20.5944 16.8088C20.2535 16.2875 20.0602 15.661 20.0704 14.9901ZM21.4143 15.2379C21.4061 15.1627 21.4006 15.0862 21.4027 15.0083C21.4198 13.9542 22.2867 13.1131 23.3402 13.1302C23.9134 13.1377 24.4224 13.4008 24.7668 13.8066L21.4143 15.2379ZM23.2801 16.9489C23.8096 16.9565 24.2892 16.7474 24.6431 16.4031L25.5736 17.3589C24.9785 17.9416 24.1594 18.2949 23.261 18.2812C22.6673 18.273 22.0872 18.1008 21.5858 17.7831L22.2949 16.6531C22.5805 16.8342 22.9173 16.9428 23.2801 16.9489Z" fill="#221F1F"/>
<path fill-rule="evenodd" clip-rule="evenodd" d="M15.3699 14.9377C15.0796 16.3628 13.8198 17.4348 12.3092 17.4348C11.9724 17.4348 11.6376 17.3808 11.3179 17.2742L10.6237 19.3477C11.1669 19.5295 11.736 19.6217 12.3092 19.621C14.8767 19.621 17.0185 17.7989 17.5118 15.377L15.3699 14.9377Z" fill="#ED412F"/>
<path fill-rule="evenodd" clip-rule="evenodd" d="M8.79068 18.2916L10.2391 16.6539C9.59276 16.0814 9.18488 15.2458 9.18488 14.3139C9.18488 13.3827 9.59276 12.5472 10.2391 11.9753L8.78999 10.3384C7.69209 11.3113 7 12.7316 7 14.3146C6.99932 15.8976 7.69209 17.3187 8.79068 18.2916Z" fill="#1AA5DF"/>
<path fill-rule="evenodd" clip-rule="evenodd" d="M11.3178 11.3461C11.6369 11.2395 11.9716 11.1856 12.3085 11.1856C13.8204 11.1856 15.0809 12.2596 15.3706 13.6854L17.5124 13.2489C17.0212 10.8248 14.878 9 12.3085 9C11.7366 8.99932 11.1682 9.09155 10.625 9.2726L11.3178 11.3461Z" fill="#FFCA32"/>
</g>
<defs>
<filter id="filter0_d_2299_51631" x="0" y="0" width="43" height="30" filterUnits="userSpaceOnUse" color-interpolation-filters="sRGB">
<feFlood flood-opacity="0" result="BackgroundImageFix"/>
<feColorMatrix in="SourceAlpha" type="matrix" values="0 0 0 0 0 0 0 0 0 0 0 0 0 0 0 0 0 0 127 0" result="hardAlpha"/>
<feOffset dy="1"/>
<feGaussianBlur stdDeviation="1"/>
<feColorMatrix type="matrix" values="0 0 0 0 0 0 0 0 0 0 0 0 0 0 0 0 0 0 0.05 0"/>
<feBlend mode="normal" in2="BackgroundImageFix" result="effect1_dropShadow_2299_51631"/>
<feBlend mode="normal" in="SourceGraphic" in2="effect1_dropShadow_2299_51631" result="shape"/>
</filter>
<clipPath id="clip0_2299_51631">
<rect width="39" height="26" fill="white" transform="translate(2 1)"/>
</clipPath>
</defs>
</svg>
