<svg width="43" height="30" viewBox="0 0 43 30" fill="none" xmlns="http://www.w3.org/2000/svg">
<g clip-path="url(#clip0_2299_51636)" filter="url(#filter0_d_2299_51636)">
<path fill-rule="evenodd" clip-rule="evenodd" d="M41 23.75C41 25.5375 39.5375 27 37.75 27H5.25C3.4625 27 2 25.5375 2 23.75V4.25C2 2.4625 3.4625 1 5.25 1H37.75C39.5375 1 41 2.4625 41 4.25V23.75Z" fill="white"/>
<path fill-rule="evenodd" clip-rule="evenodd" d="M18.9786 20.5205L6 20.525V20.494C6 20.4766 6.02064 20.3657 6.0458 20.2463C6.07096 20.1276 6.11031 19.938 6.13288 19.8258C6.15546 19.7135 6.19481 19.5226 6.21932 19.4019C6.24383 19.2807 6.28512 19.0794 6.31092 18.9543C6.33672 18.8291 6.37672 18.6311 6.39994 18.5143C6.42316 18.3976 6.46251 18.2067 6.48702 18.0905C6.51153 17.9738 6.55282 17.7725 6.57926 17.6429C6.60571 17.5132 6.64571 17.3152 6.66828 17.2029C6.69086 17.0907 6.72698 16.9172 6.74827 16.8178C6.76956 16.7185 6.79665 16.5843 6.80891 16.5192C6.82052 16.4547 6.85922 16.2637 6.8947 16.0947C6.93018 15.9257 6.96888 15.7354 6.98114 15.6709C6.99339 15.6064 7.03274 15.4155 7.06758 15.2465C7.10305 15.0781 7.14176 14.8872 7.15401 14.8227C7.16627 14.7582 7.20497 14.5672 7.2411 14.3989C7.27658 14.2305 7.31528 14.0428 7.32689 13.9828C7.3385 13.9228 7.36946 13.7667 7.39591 13.637C7.42236 13.5074 7.47332 13.2635 7.50815 13.0952C7.54299 12.9268 7.60298 12.6333 7.64168 12.443C7.68038 12.2527 7.72554 12.027 7.74295 11.9405C7.76037 11.8541 7.79262 11.6986 7.81391 11.5948C7.8352 11.4909 7.8739 11.3038 7.8997 11.1787C7.92551 11.0536 7.96808 10.8484 7.99388 10.7233C8.01969 10.5982 8.05903 10.4033 8.08161 10.2911C8.10419 10.1789 8.14289 9.99179 8.1674 9.87504C8.19192 9.75828 8.23449 9.55315 8.26158 9.41963C8.28868 9.28545 8.33448 9.08097 8.36286 8.96421C8.39124 8.84746 8.43123 8.70619 8.45252 8.65007C8.47316 8.59395 8.53057 8.47203 8.5796 8.37979L8.66926 8.21143L8.75054 8.10499C8.79505 8.04629 8.87504 7.95405 8.92793 7.89922C8.98083 7.84439 9.06985 7.76246 9.12597 7.71666C9.18209 7.67086 9.26336 7.60894 9.30658 7.57927C9.3498 7.54959 9.4343 7.49734 9.49494 7.4638C9.55558 7.42961 9.64008 7.38575 9.6833 7.3651C9.72652 7.34446 9.81489 7.30769 9.8794 7.28254C9.9439 7.25738 10.0677 7.21545 10.1542 7.189C10.2406 7.16256 10.4025 7.12321 10.5148 7.10127C10.6264 7.07934 10.8031 7.04967 10.9076 7.03548L11.0973 7.01032L24.0836 7.00516L37.07 7V7.03096C37.07 7.04838 37.0494 7.15933 37.0236 7.27867C36.9984 7.39736 36.9558 7.6012 36.9287 7.73085C36.9023 7.86051 36.8636 8.04758 36.8429 8.14692C36.8223 8.24626 36.783 8.4372 36.7552 8.57137C36.7281 8.70554 36.6856 8.91003 36.6617 9.02678C36.6378 9.14354 36.5985 9.33448 36.5752 9.45123C36.552 9.56799 36.5127 9.75893 36.4882 9.87504C36.4636 9.99179 36.4262 10.1756 36.4043 10.2834C36.3824 10.3911 36.343 10.5859 36.3166 10.7156C36.2901 10.8452 36.2476 11.0503 36.2224 11.171C36.1972 11.2916 36.1579 11.4793 36.136 11.587C36.114 11.6948 36.0747 11.8896 36.0482 12.0192C36.0218 12.1489 35.9799 12.354 35.9541 12.4746C35.9282 12.5953 35.8908 12.7791 35.8695 12.883C35.8489 12.9868 35.8096 13.181 35.7818 13.3152C35.7547 13.4493 35.7147 13.6435 35.6941 13.7473C35.6728 13.8512 35.6347 14.035 35.6096 14.1557C35.5844 14.2769 35.5412 14.4853 35.5141 14.6188C35.487 14.753 35.4477 14.9433 35.427 15.0426C35.4064 15.142 35.3683 15.329 35.3419 15.4587C35.3154 15.5883 35.2735 15.7935 35.2484 15.9141C35.2232 16.0347 35.1845 16.2257 35.1613 16.3379C35.1387 16.4501 35.0987 16.6443 35.0729 16.7701C35.0471 16.8952 35.0052 17.1004 34.9794 17.2255C34.9536 17.3507 34.9155 17.5384 34.8942 17.6416C34.8729 17.7454 34.8342 17.9364 34.8078 18.066C34.7813 18.1957 34.7388 18.3995 34.7123 18.5201L34.6652 18.7382L34.6091 18.8891C34.5781 18.9723 34.5317 19.0826 34.5059 19.1342C34.4801 19.1859 34.4272 19.2775 34.3885 19.3374C34.3498 19.3974 34.2962 19.4742 34.2685 19.5084C34.2408 19.5426 34.1595 19.6297 34.0866 19.7032L33.9544 19.8361L33.8266 19.9264C33.7563 19.9761 33.6809 20.027 33.6589 20.0393C33.637 20.0515 33.5525 20.0947 33.4712 20.1354C33.3899 20.176 33.2758 20.2276 33.2171 20.2502C33.1584 20.2728 33.0416 20.3108 32.9577 20.3354C32.8739 20.3599 32.7842 20.3837 32.7584 20.3889C32.7326 20.3941 32.6423 20.4128 32.5584 20.4302C32.4746 20.4482 32.3049 20.4747 32.1817 20.4895L31.9573 20.516L18.9786 20.5205Z" fill="#B7232C"/>
<path fill-rule="evenodd" clip-rule="evenodd" d="M13.193 11.249L13.2427 11.0361H12.2957L12.2751 11.1806C12.2699 11.2213 12.2505 11.3348 12.2344 11.4335L12.2273 11.4735C12.2093 11.5748 12.1835 11.7238 12.1648 11.8263C12.1441 11.9431 12.1054 12.1663 12.0796 12.3224C12.0538 12.4778 12.0209 12.6849 12.0067 12.781L11.9906 12.8881L10.923 12.91L10.4463 12.8984C10.2676 12.8939 10.1347 12.89 10.056 12.8875C10.058 12.8739 10.0606 12.8584 10.0638 12.843C10.0767 12.7707 10.0999 12.6443 10.1167 12.563C10.1335 12.4804 10.1651 12.3172 10.187 12.2005C10.2089 12.0824 10.2341 11.936 10.2431 11.8741C10.2509 11.8154 10.2683 11.7173 10.2812 11.656C10.2947 11.5928 10.3205 11.4593 10.3373 11.36C10.3528 11.2703 10.3695 11.1871 10.3741 11.171L10.4263 11.0361H9.47162L9.43486 11.2393C9.42131 11.3161 9.40325 11.4245 9.39486 11.4819C9.38648 11.538 9.35745 11.7173 9.331 11.8812L9.15748 12.9655C9.13103 13.1294 9.08846 13.3829 9.06201 13.5293C9.03492 13.6764 8.99686 13.8841 8.97622 13.9918L8.88978 14.4472C8.86269 14.5904 8.82334 14.7904 8.80205 14.8936C8.78076 14.9987 8.7569 15.1194 8.74916 15.1632C8.74141 15.2058 8.71755 15.3297 8.69562 15.438C8.68013 15.5154 8.65369 15.6503 8.65369 15.678V15.7838H9.56645L9.7561 14.633C9.78319 14.473 9.82254 14.2369 9.84511 14.1073C9.86705 13.9783 9.90253 13.777 9.92317 13.6615C9.93671 13.5861 9.94832 13.5287 9.95349 13.499H11.8809L11.8777 13.5164C11.868 13.5667 11.8383 13.7202 11.8132 13.8589L11.7177 14.3776C11.6906 14.524 11.6519 14.7323 11.6313 14.8407C11.6106 14.9484 11.5681 15.1755 11.5378 15.3439C11.521 15.438 11.481 15.6586 11.481 15.6838L11.4823 15.7838H12.3963L12.4247 15.6187C12.4344 15.5645 12.4492 15.4658 12.4589 15.4006C12.4679 15.3361 12.4892 15.1994 12.5066 15.0962L12.5847 14.6407C12.6098 14.493 12.6518 14.2427 12.6789 14.0828C12.7053 13.9228 12.7447 13.6899 12.766 13.5648C12.7879 13.4396 12.8259 13.2287 12.8511 13.0945L13.1207 11.6257C13.1452 11.4793 13.1788 11.3109 13.193 11.249Z" fill="#F5F5F5"/>
<path fill-rule="evenodd" clip-rule="evenodd" d="M14.0896 13.7026L14.1754 13.255C14.1973 13.1382 14.2399 12.9176 14.2709 12.7628C14.3025 12.6041 14.3263 12.497 14.3334 12.4802L14.4095 12.3557L13.511 12.3667L13.4729 12.6396C13.4574 12.7524 13.4233 12.9737 13.3968 13.133L13.3091 13.6755C13.2871 13.8136 13.2484 14.0348 13.2233 14.1684L13.1375 14.6238C13.1156 14.7405 13.0762 14.945 13.0504 15.0785C13.0246 15.2121 12.9891 15.3882 12.9724 15.4701C12.9562 15.5501 12.9388 15.6307 12.9336 15.6501L12.8969 15.7868H13.7335L13.7626 15.7107C13.7767 15.6733 13.7774 15.6088 13.7774 15.6017C13.7774 15.581 13.7942 15.4501 13.8238 15.2663C13.8503 15.105 13.8929 14.8424 13.9193 14.6831C13.9458 14.5231 13.9845 14.2903 14.0057 14.1645C14.0264 14.04 14.0644 13.8323 14.0896 13.7026Z" fill="#F5F5F5"/>
<path fill-rule="evenodd" clip-rule="evenodd" d="M13.8748 11.9412L14.1128 11.9496L14.2773 11.8942L14.4425 11.7387L14.5315 11.5284L14.5392 11.211L14.4644 11.0872L14.3089 10.9807H14.0496L13.8567 11.0594L13.7374 11.1781L13.6484 11.3742L13.6271 11.6922L13.7181 11.8703L13.8748 11.9412Z" fill="#F5F5F5"/>
<path fill-rule="evenodd" clip-rule="evenodd" d="M17.4756 12.7472L17.582 12.9594L17.6536 13.2632L17.6762 13.5587L17.6581 13.7393C17.6478 13.8309 17.6252 13.9818 17.6072 14.0754L17.5755 14.2386L17.5123 14.4366C17.4769 14.545 17.4181 14.703 17.3814 14.7894C17.3472 14.8701 17.2937 14.9797 17.262 15.0255C17.2588 15.0306 17.2555 15.0357 17.2524 15.0407C17.2424 15.0562 17.2334 15.0703 17.2285 15.0791C17.2221 15.0991 17.2021 15.1313 17.1414 15.2107C17.0976 15.2687 17.015 15.3623 16.9576 15.4197L16.855 15.5216L16.7324 15.6041C16.6673 15.6467 16.5731 15.6996 16.5176 15.7248L16.4235 15.768L16.059 15.8628L15.7197 15.8854L15.4294 15.846L15.1875 15.7422L15.025 15.5783C15.0121 15.6648 14.9934 15.7899 14.9772 15.8925L14.8218 16.8769C14.8069 16.9723 14.7979 17.0549 14.7979 17.0717C14.7979 17.1 14.7934 17.1433 14.7837 17.1704L14.7528 17.2478H13.92L13.9522 17.1129C13.9568 17.0936 13.9813 16.9736 14.0071 16.8452C14.0329 16.7162 14.0748 16.4976 14.1006 16.3589C14.1264 16.2215 14.1696 15.988 14.1967 15.8409L14.3689 14.9068C14.3947 14.7636 14.4373 14.5243 14.4631 14.3734L14.636 13.3445C14.6618 13.189 14.7057 12.9194 14.7334 12.7446L14.7947 12.3582H15.523L15.5204 12.4414C15.5197 12.4679 15.5107 12.5214 15.5023 12.5646C15.5189 12.5528 15.5342 12.5428 15.5411 12.5383L15.5442 12.5362C15.5952 12.5046 15.6836 12.4569 15.7416 12.4298L15.8474 12.3814L16.1035 12.3143L16.4119 12.2776L16.6944 12.2963L16.9743 12.3634L17.2569 12.5111L17.4756 12.7472ZM16.7936 13.983L16.8072 13.4134L16.7833 13.3238C16.7704 13.2741 16.744 13.2012 16.7266 13.1677L16.6956 13.1051L16.5782 12.9877L16.4285 12.9187L16.226 12.878L15.9551 12.8942L15.7538 12.9587L15.6861 12.9993C15.6448 13.0225 15.5706 13.0748 15.5235 13.1141L15.4558 13.1703L15.4203 13.3599C15.3977 13.4786 15.3571 13.7005 15.3306 13.8508C15.3042 14.003 15.2642 14.2224 15.2416 14.3391L15.201 14.5513L15.1874 14.7997L15.2042 14.8732C15.2145 14.9139 15.2371 14.9822 15.2545 15.0216L15.2829 15.0854L15.3835 15.1816L15.5358 15.2506L15.697 15.279L15.9299 15.2628L16.1737 15.1796L16.2215 15.1441C16.2511 15.1222 16.3002 15.0829 16.3292 15.0577C16.3531 15.0371 16.4002 14.9855 16.4298 14.9435C16.4582 14.9042 16.5117 14.8158 16.5479 14.7474L16.6137 14.6229L16.662 14.4804C16.6917 14.3952 16.733 14.2514 16.7536 14.1598L16.7936 13.983Z" fill="#F5F5F5"/>
<path fill-rule="evenodd" clip-rule="evenodd" d="M20.8936 13.2291L20.893 13.3736L20.871 13.5567C20.8581 13.6522 20.8349 13.7825 20.8201 13.847L20.7788 14.0218L18.9668 14.0096L18.5643 14.0283L18.5204 14.3134L18.5217 14.6824L18.5791 14.8836L18.6623 15.0243L18.7688 15.1197L18.8339 15.152C18.872 15.1713 18.9442 15.1997 18.9926 15.2152L19.0739 15.241L19.6112 15.2404L19.9415 15.1739L20.0963 15.1223C20.1898 15.092 20.284 15.0572 20.3098 15.0443L20.4188 14.9914L20.4911 15.061L20.4995 15.1217L20.4608 15.3081C20.4401 15.4087 20.4188 15.5216 20.4137 15.5597L20.3963 15.6874L20.1498 15.7416C20.0479 15.7635 19.8815 15.7945 19.7789 15.8087C19.6828 15.8222 19.5254 15.8396 19.4293 15.8486L19.2526 15.8648L19.0758 15.8628C18.9745 15.8616 18.8468 15.8545 18.7849 15.8467C18.7223 15.8383 18.612 15.817 18.5385 15.7996L18.4095 15.7687L18.3024 15.7216C18.2456 15.6958 18.1643 15.648 18.1166 15.6126C18.0689 15.5764 18.0011 15.5164 17.9631 15.4764C17.9224 15.4339 17.8715 15.3655 17.8463 15.3216C17.8225 15.2784 17.7883 15.2042 17.7689 15.1533C17.7502 15.1017 17.7238 15.0133 17.7102 14.954L17.6864 14.852L17.6838 14.3663L17.7096 14.1947C17.7238 14.105 17.7528 13.9606 17.7734 13.8722C17.7954 13.7806 17.8302 13.6567 17.8534 13.5896C17.876 13.5232 17.9102 13.4329 17.9283 13.3884C17.9476 13.3432 17.9889 13.2568 18.0199 13.1942C18.0515 13.131 18.1076 13.0362 18.1444 12.9814C18.1811 12.9265 18.2482 12.8452 18.2966 12.7962C18.3424 12.7511 18.4121 12.6872 18.4527 12.6543C18.4933 12.6221 18.574 12.5679 18.6359 12.5324C18.6952 12.4988 18.7984 12.4498 18.8655 12.4221L18.9842 12.3756L19.3758 12.2989L19.6996 12.2769L20.0512 12.3105L20.3363 12.3782L20.4337 12.4266C20.4795 12.4505 20.544 12.4905 20.5769 12.513C20.6143 12.5395 20.6659 12.5866 20.6956 12.6208C20.7246 12.6543 20.7665 12.7156 20.7923 12.7595L20.842 12.8523L20.8923 13.0671L20.8936 13.2291ZM20.0906 13.4893L20.1151 13.2655L20.0886 13.1049L20.0732 13.0752C20.0661 13.0623 20.0403 13.0255 20.0157 12.9991L19.9783 12.9591L19.8287 12.8907L19.6074 12.863L19.4578 12.8726C19.3668 12.8778 19.2771 12.8894 19.2526 12.8959C19.2281 12.9023 19.1604 12.9281 19.1023 12.9559L19.0133 12.9984L18.8243 13.1861L18.783 13.2687C18.7585 13.3184 18.7205 13.4087 18.6985 13.4687C18.6959 13.4745 18.694 13.4803 18.6921 13.4861C18.8243 13.488 19.072 13.4893 19.372 13.4893H20.0906Z" fill="#F5F5F5"/>
<path fill-rule="evenodd" clip-rule="evenodd" d="M23.0379 12.9761C23.1385 13.0057 23.1495 13.0057 23.1592 13.0057C23.1682 13.0057 23.2495 13.0025 23.2495 12.889C23.2501 12.8729 23.2637 12.7871 23.2869 12.6742C23.3275 12.4729 23.3275 12.4632 23.3275 12.4549C23.3275 12.3878 23.2688 12.3665 23.1559 12.3329C23.0953 12.3149 23.0018 12.2923 22.9508 12.2865L22.8598 12.2749L22.7457 12.2949C22.6863 12.3059 22.5986 12.3284 22.5463 12.3471C22.4954 12.3658 22.4148 12.4065 22.3619 12.4407C22.309 12.4749 22.2322 12.5361 22.1877 12.58C22.1651 12.6026 22.1348 12.6355 22.1045 12.6716C22.12 12.5845 22.1348 12.5058 22.1393 12.489L22.1793 12.3581H21.391V12.4755C21.3904 12.4923 21.3768 12.5942 21.3523 12.7419C21.3304 12.8748 21.2949 13.0967 21.273 13.2354C21.2511 13.3734 21.2124 13.614 21.1866 13.7688C21.1608 13.9237 21.122 14.1456 21.1001 14.2617L21.0137 14.7171C20.9879 14.8513 20.9453 15.0699 20.9189 15.2035C20.8924 15.3376 20.8608 15.495 20.8485 15.5544C20.8247 15.6705 20.8247 15.6866 20.8247 15.706V15.7866H21.651L21.6665 15.5699C21.6716 15.4937 21.691 15.3363 21.7078 15.2273C21.7252 15.1132 21.7613 14.8854 21.7884 14.7216C21.8148 14.5584 21.8639 14.2868 21.8968 14.1172C21.9329 13.9385 21.969 13.7811 21.978 13.754C21.9864 13.7301 22.0064 13.6702 22.0051 13.6514C22.0077 13.6411 22.0251 13.5947 22.0555 13.5295C22.0838 13.4676 22.1393 13.3689 22.1767 13.3128L22.2361 13.2205L22.4186 13.0515L22.627 12.9516L22.9579 12.9535L23.0379 12.9761Z" fill="#F5F5F5"/>
<path fill-rule="evenodd" clip-rule="evenodd" d="M25.713 12.8399C25.724 12.769 25.7434 12.6529 25.7563 12.5813C25.784 12.4258 25.7801 12.4013 25.7505 12.3716C25.7318 12.3536 25.724 12.3458 25.566 12.3278C25.4944 12.3194 25.2983 12.3045 25.1312 12.2949L24.8203 12.2781L24.3855 12.3123L24.0578 12.3819L23.9559 12.4226C23.9011 12.4445 23.8133 12.4871 23.763 12.5174C23.7179 12.5451 23.6605 12.5826 23.6334 12.6006C23.6018 12.6238 23.5205 12.6987 23.4592 12.7587L23.3289 12.889L23.2618 12.987C23.2231 13.0444 23.1567 13.1612 23.1141 13.2476L23.0354 13.4089L22.978 13.574C22.9457 13.6669 22.9006 13.8178 22.878 13.9107L22.8354 14.0868L22.8058 14.3932L22.8064 14.7964L22.8412 15.0441L22.9425 15.2931L23.0625 15.4769L23.236 15.6472L23.4534 15.764L23.574 15.7975C23.6456 15.8175 23.743 15.8388 23.7966 15.8472C23.8508 15.8549 23.974 15.8614 24.0707 15.8627L24.2488 15.8646L24.45 15.8408C24.5597 15.8279 24.7061 15.8059 24.7751 15.793C24.8448 15.7795 24.9577 15.753 25.0248 15.733C25.1635 15.695 25.1809 15.6795 25.1873 15.673C25.2054 15.6588 25.2228 15.644 25.257 15.4679C25.2731 15.386 25.2931 15.2763 25.3021 15.2241C25.3208 15.1105 25.317 15.0854 25.2892 15.0525L25.2621 15.028H25.2286C25.1983 15.028 25.1725 15.0435 25.1615 15.0525C25.1493 15.0596 25.0893 15.0854 25.0067 15.1164L24.868 15.1686L24.4552 15.2512L24.101 15.2389L23.9198 15.1757L23.7817 15.0544L23.6882 14.8835L23.6411 14.6519V14.4829L23.6405 14.3262L23.6998 13.9294L23.7327 13.8191C23.7508 13.7579 23.7721 13.6856 23.7785 13.6598C23.785 13.6359 23.8127 13.5663 23.8385 13.5069C23.8656 13.4444 23.9146 13.3482 23.9462 13.2921L23.9952 13.2031L24.1294 13.0605L24.2694 12.9709L24.3707 12.9393C24.4242 12.9231 24.5197 12.9012 24.579 12.8922L24.6803 12.8754L25.0144 12.8909L25.4105 12.9689L25.4937 12.9999C25.5918 13.0367 25.5918 13.0367 25.6092 13.0367C25.6827 13.0373 25.6892 12.9915 25.713 12.8399Z" fill="#F5F5F5"/>
<path fill-rule="evenodd" clip-rule="evenodd" d="M28.2869 12.3832L28.5042 12.498L28.6436 12.6374L28.7403 12.8548L28.7378 13.2483L28.6945 13.4895C28.6729 13.6062 28.6372 13.8021 28.6121 13.9399L28.6068 13.9688C28.5823 14.1062 28.5436 14.3255 28.5217 14.4545C28.5004 14.5842 28.4636 14.8196 28.441 14.9783L28.4004 15.2692L28.3804 15.7859H27.645L27.6457 15.6072C27.6457 15.5692 27.6502 15.5073 27.6566 15.4434C27.6424 15.4589 27.6289 15.4731 27.6166 15.4853C27.5702 15.5324 27.4928 15.5956 27.4412 15.6298C27.3928 15.6627 27.3122 15.7085 27.2586 15.7343L27.1722 15.775L26.8903 15.8479L26.4413 15.862L26.3414 15.8466C26.2878 15.8388 26.1943 15.8169 26.1324 15.8001L26.0046 15.7608L25.7969 15.6298L25.744 15.5679C25.7111 15.5298 25.6653 15.4621 25.6389 15.4144L25.5873 15.3131L25.5421 15.0738L25.5408 14.7706L25.5899 14.4823L25.6473 14.3423C25.6782 14.2707 25.7273 14.1765 25.7602 14.1281C25.7911 14.0817 25.8608 14.0004 25.9175 13.9436L26.0117 13.8495L26.1459 13.7637C26.2852 13.6766 26.3026 13.6766 26.3226 13.6766C26.3205 13.6757 26.3298 13.6713 26.3432 13.6648C26.3502 13.6615 26.3583 13.6576 26.3665 13.6534C26.4104 13.6334 26.5258 13.5947 26.6316 13.5663L26.8374 13.5121L27.9018 13.5076L27.9424 13.3082L27.9418 13.2037L27.9424 13.1096L27.8663 12.9954L27.7134 12.9199L27.4515 12.8741L27.0451 12.8928L26.8193 12.9322C26.6961 12.9528 26.5239 12.9889 26.4433 13.0102C26.3046 13.0483 26.2801 13.0483 26.2723 13.0483H26.2362L26.2098 13.0212C26.1762 12.9877 26.1794 12.9683 26.231 12.7696C26.2556 12.6767 26.2833 12.5606 26.2936 12.5116L26.3252 12.3581L26.6478 12.3561L26.8271 12.3342C26.9335 12.3207 27.1374 12.3032 27.2819 12.2942L27.5437 12.2781L27.9611 12.309L28.2869 12.3832ZM27.7908 14.1006L27.7992 14.0516H27.0677L26.8258 14.109L26.6516 14.1948L26.4807 14.3644L26.4368 14.456C26.411 14.5076 26.3787 14.5908 26.3652 14.6366L26.342 14.716L26.3536 14.9869L26.3794 15.0353C26.3955 15.0656 26.4245 15.1108 26.442 15.1307L26.4703 15.1649L26.5271 15.194C26.5613 15.212 26.6252 15.2359 26.6639 15.2456L26.7355 15.2636L26.9638 15.2514L27.1973 15.1778L27.2457 15.1449C27.287 15.1172 27.3122 15.1037 27.3289 15.0972C27.3457 15.0849 27.3773 15.0559 27.4108 15.0217L27.4979 14.9353L27.5502 14.8476C27.5721 14.8102 27.5921 14.7753 27.5992 14.7605C27.6044 14.7418 27.6166 14.7057 27.6476 14.6257C27.6715 14.5657 27.7095 14.447 27.7314 14.3664C27.7527 14.2857 27.7792 14.1677 27.7908 14.1006Z" fill="#F5F5F5"/>
<path fill-rule="evenodd" clip-rule="evenodd" d="M31.0825 13L31.1438 12.9955L31.2121 12.9523L31.2134 12.8587C31.2134 12.8407 31.2283 12.7484 31.2495 12.6452L31.2999 12.4014L31.1947 12.3595C31.1702 12.3504 31.1141 12.3317 31.0702 12.3182L30.9915 12.293L30.6838 12.2898L30.4116 12.3833L30.2387 12.4872L30.0659 12.6646C30.0794 12.5936 30.0955 12.5007 30.0962 12.4749L30.0981 12.3575H29.435L29.3544 12.3614V12.442C29.3531 12.4562 29.3395 12.5504 29.3228 12.6601C29.3053 12.7781 29.2692 13.0039 29.2434 13.1638C29.2176 13.3225 29.1757 13.5806 29.1492 13.7367C29.1234 13.8915 29.0847 14.1134 29.0628 14.2301C29.0409 14.3462 29.0022 14.5514 28.977 14.6849L28.7596 15.786H29.624L29.6234 15.5074L29.6633 15.2474C29.6853 15.1048 29.7208 14.8784 29.7433 14.7449C29.7659 14.6114 29.793 14.4404 29.8046 14.3675C29.8162 14.2946 29.8459 14.1379 29.8717 14.0186C29.8988 13.8928 29.9298 13.7689 29.9407 13.7373C29.9433 13.7289 29.9697 13.6567 29.9691 13.6347C29.9717 13.6238 29.9923 13.5728 30.0278 13.498L30.0846 13.3748L30.2484 13.1574L30.3323 13.0935C30.3794 13.0581 30.4574 13.0097 30.5032 12.9877L30.5761 12.9516L30.9373 12.9548L31.0825 13Z" fill="#F5F5F5"/>
<path fill-rule="evenodd" clip-rule="evenodd" d="M33.6375 11.1122L33.6549 10.9419H34.4806V11.0226C34.4813 11.0419 34.4813 11.0497 34.4413 11.2432C34.4206 11.3419 34.3813 11.536 34.3548 11.6734C34.3284 11.8115 34.2884 12.0224 34.2658 12.1437L34.0878 13.11C34.062 13.2519 34.0226 13.4712 34.0013 13.5964C33.9801 13.7215 33.9472 13.9086 33.9284 14.0131C33.9104 14.1156 33.8781 14.313 33.8575 14.4504C33.8368 14.5878 33.7988 14.88 33.773 15.1L33.7259 15.5006L33.7265 15.7831H32.9409L32.9596 15.5883C32.9621 15.5619 32.966 15.5296 32.9699 15.498L32.9692 15.4993L32.7957 15.6541L32.6854 15.7141C32.628 15.7431 32.5454 15.776 32.4971 15.7896C32.448 15.8037 32.3422 15.8244 32.2687 15.8366L32.1203 15.8612L31.9642 15.8592C31.8759 15.8579 31.7636 15.8515 31.7088 15.8444C31.654 15.8373 31.5617 15.8186 31.5011 15.8018C31.4424 15.787 31.3508 15.7515 31.2934 15.7225L31.1992 15.6767L31.0457 15.5535L30.9012 15.3567L30.8683 15.2735C30.8496 15.2264 30.8238 15.1535 30.8115 15.1129L30.7909 15.0432L30.7522 14.6336L30.7993 14.1318L30.8496 13.9305C30.8773 13.8221 30.9179 13.6873 30.9425 13.6241C30.965 13.5628 31.0224 13.4338 31.0721 13.3306L31.1573 13.1532L31.2366 13.0371C31.2798 12.9758 31.3579 12.8803 31.4114 12.8229L31.5062 12.721L31.7372 12.5481L32.0481 12.3952L32.3777 12.3095L32.7357 12.2753L33.1582 12.3069L33.3208 12.3469C33.3247 12.3475 33.3866 12.3636 33.4388 12.3785L33.4872 12.085C33.513 11.9295 33.555 11.6689 33.5814 11.5044C33.6066 11.3419 33.6324 11.1658 33.6375 11.1122ZM31.7876 13.6187C31.767 13.6639 31.7495 13.7084 31.7457 13.7245C31.7457 13.7245 31.7631 13.6923 31.7031 13.8813L31.6644 14.0064L31.6167 14.3548L31.6134 14.7528L31.6534 14.9282L31.736 15.0876L31.8431 15.1746L31.9095 15.203C31.9463 15.2191 32.0108 15.2385 32.0476 15.2449L32.1282 15.2591L32.3365 15.2456L32.5655 15.1727L32.643 15.1217C32.6868 15.0934 32.7449 15.0482 32.7713 15.0237C32.7958 15.0018 32.8378 14.9527 32.8623 14.9173C32.8868 14.8831 32.9255 14.814 32.9474 14.7676C32.9694 14.7224 32.9971 14.6489 33.0093 14.607L33.0629 14.4083C33.0797 14.3451 33.1113 14.1993 33.1332 14.0845C33.1375 14.0618 33.1424 14.0357 33.1477 14.0073C33.1699 13.8896 33.1994 13.7331 33.2196 13.6213C33.2454 13.4833 33.2809 13.2859 33.299 13.182C33.3111 13.1112 33.3241 13.04 33.3324 12.994L33.3364 12.9724C33.3009 12.9608 33.2332 12.9401 33.1693 12.9227L33.0306 12.8847H32.5365L32.3024 12.9659L32.2475 13.0014C32.214 13.0227 32.1527 13.0711 32.1172 13.1059C32.0805 13.1408 32.0211 13.2085 31.9876 13.2536C31.9547 13.2982 31.9063 13.3756 31.8818 13.422C31.8553 13.473 31.8134 13.5613 31.7876 13.6187Z" fill="#F5F5F5"/>
<path d="M37.75 1H5.25C3.4625 1 2 2.4625 2 4.25V23.75C2 25.5375 3.4625 27 5.25 27H37.75C39.5375 27 41 25.5375 41 23.75V4.25C41 2.4625 39.5375 1 37.75 1ZM37.75 1.65C39.1839 1.65 40.35 2.8161 40.35 4.25V23.75C40.35 25.1839 39.1839 26.35 37.75 26.35H5.25C3.8161 26.35 2.65 25.1839 2.65 23.75V4.25C2.65 2.8161 3.8161 1.65 5.25 1.65H37.75Z" fill="#E4E4E7"/>
</g>
<defs>
<filter id="filter0_d_2299_51636" x="0" y="0" width="43" height="30" filterUnits="userSpaceOnUse" color-interpolation-filters="sRGB">
<feFlood flood-opacity="0" result="BackgroundImageFix"/>
<feColorMatrix in="SourceAlpha" type="matrix" values="0 0 0 0 0 0 0 0 0 0 0 0 0 0 0 0 0 0 127 0" result="hardAlpha"/>
<feOffset dy="1"/>
<feGaussianBlur stdDeviation="1"/>
<feColorMatrix type="matrix" values="0 0 0 0 0 0 0 0 0 0 0 0 0 0 0 0 0 0 0.05 0"/>
<feBlend mode="normal" in2="BackgroundImageFix" result="effect1_dropShadow_2299_51636"/>
<feBlend mode="normal" in="SourceGraphic" in2="effect1_dropShadow_2299_51636" result="shape"/>
</filter>
<clipPath id="clip0_2299_51636">
<rect width="39" height="26" fill="white" transform="translate(2 1)"/>
</clipPath>
</defs>
</svg>
