<svg width="43" height="30" viewBox="0 0 43 30" fill="none" xmlns="http://www.w3.org/2000/svg">
<g clip-path="url(#clip0_2299_51629)" filter="url(#filter0_d_2299_51629)">
<path fill-rule="evenodd" clip-rule="evenodd" d="M41 23.75C41 25.5375 39.5375 27 37.75 27H5.25C3.4625 27 2 25.5375 2 23.75V4.25C2 2.4625 3.4625 1 5.25 1H37.75C39.5375 1 41 2.4625 41 4.25V23.75Z" fill="white"/>
<path d="M37.75 1H5.25C3.4625 1 2 2.4625 2 4.25V23.75C2 25.5375 3.4625 27 5.25 27H37.75C39.5375 27 41 25.5375 41 23.75V4.25C41 2.4625 39.5375 1 37.75 1ZM37.75 1.65C39.1839 1.65 40.35 2.8161 40.35 4.25V23.75C40.35 25.1839 39.1839 26.35 37.75 26.35H5.25C3.8161 26.35 2.65 25.1839 2.65 23.75V4.25C2.65 2.8161 3.8161 1.65 5.25 1.65H37.75Z" fill="#E4E4E7"/>
<path fill-rule="evenodd" clip-rule="evenodd" d="M24.6453 19.4765C27.5349 19.4765 29.8774 17.134 29.8774 14.2444C29.8774 11.3547 27.5349 9.01221 24.6453 9.01221C21.7557 9.01221 19.4131 11.3547 19.4131 14.2444C19.4131 17.134 21.7557 19.4765 24.6453 19.4765Z" fill="#F79E1B"/>
<path fill-rule="evenodd" clip-rule="evenodd" d="M18.2321 19.4643C21.1218 19.4643 23.4643 17.1218 23.4643 14.2321C23.4643 11.3425 21.1218 9 18.2321 9C15.3425 9 13 11.3425 13 14.2321C13 17.1218 15.3425 19.4643 18.2321 19.4643Z" fill="#EB001B"/>
<path fill-rule="evenodd" clip-rule="evenodd" d="M19.4132 14.2322C19.4095 15.9139 20.1987 17.412 21.429 18.3721C22.6642 17.4174 23.4606 15.9237 23.4649 14.2425C23.4685 12.5607 22.6794 11.0627 21.4491 10.1025C20.2133 11.056 19.4168 12.5504 19.4132 14.2322Z" fill="#FF5F00"/>
</g>
<defs>
<filter id="filter0_d_2299_51629" x="0" y="0" width="43" height="30" filterUnits="userSpaceOnUse" color-interpolation-filters="sRGB">
<feFlood flood-opacity="0" result="BackgroundImageFix"/>
<feColorMatrix in="SourceAlpha" type="matrix" values="0 0 0 0 0 0 0 0 0 0 0 0 0 0 0 0 0 0 127 0" result="hardAlpha"/>
<feOffset dy="1"/>
<feGaussianBlur stdDeviation="1"/>
<feColorMatrix type="matrix" values="0 0 0 0 0 0 0 0 0 0 0 0 0 0 0 0 0 0 0.05 0"/>
<feBlend mode="normal" in2="BackgroundImageFix" result="effect1_dropShadow_2299_51629"/>
<feBlend mode="normal" in="SourceGraphic" in2="effect1_dropShadow_2299_51629" result="shape"/>
</filter>
<clipPath id="clip0_2299_51629">
<rect width="39" height="26" fill="white" transform="translate(2 1)"/>
</clipPath>
</defs>
</svg>
