<svg width="43" height="30" viewBox="0 0 43 30" fill="none" xmlns="http://www.w3.org/2000/svg">
<g clip-path="url(#clip0_2299_51637)" filter="url(#filter0_d_2299_51637)">
<path fill-rule="evenodd" clip-rule="evenodd" d="M41 23.75C41 25.5375 39.5375 27 37.75 27H5.25C3.4625 27 2 25.5375 2 23.75V4.25C2 2.4625 3.4625 1 5.25 1H37.75C39.5375 1 41 2.4625 41 4.25V23.75Z" fill="white"/>
<path d="M37.75 1H5.25C3.4625 1 2 2.4625 2 4.25V23.75C2 25.5375 3.4625 27 5.25 27H37.75C39.5375 27 41 25.5375 41 23.75V4.25C41 2.4625 39.5375 1 37.75 1ZM37.75 1.65C39.1839 1.65 40.35 2.8161 40.35 4.25V23.75C40.35 25.1839 39.1839 26.35 37.75 26.35H5.25C3.8161 26.35 2.65 25.1839 2.65 23.75V4.25C2.65 2.8161 3.8161 1.65 5.25 1.65H37.75Z" fill="#E4E4E7"/>
<path d="M18.0813 17.7106C18.3515 17.7116 18.6192 17.6588 18.8688 17.5555C19.1184 17.4521 19.3451 17.3002 19.5355 17.1085L21.6347 15.0094C21.7092 14.9384 21.8081 14.8987 21.9111 14.8987C22.014 14.8987 22.113 14.9384 22.1875 15.0094L24.2948 17.1172C24.4856 17.3086 24.7124 17.4603 24.9622 17.5635C25.2119 17.6667 25.4797 17.7194 25.7499 17.7184H26.1639L23.5037 20.3773C23.3064 20.575 23.072 20.7319 22.814 20.839C22.5559 20.946 22.2793 21.0012 22 21.0012C21.7206 21.0012 21.444 20.946 21.1859 20.839C20.9279 20.7319 20.6935 20.575 20.4962 20.3773L17.8252 17.7106H18.0813ZM25.7499 10.2825C25.4798 10.2817 25.2122 10.3345 24.9626 10.4377C24.7129 10.541 24.4863 10.6927 24.2957 10.8842L22.1914 12.9929C22.1181 13.066 22.0187 13.1071 21.9152 13.1071C21.8116 13.1071 21.7123 13.066 21.639 12.9929L19.5399 10.8933C19.3494 10.7016 19.1228 10.5496 18.8732 10.4463C18.6235 10.3429 18.3558 10.2902 18.0856 10.2912H17.8252L20.4962 7.62279C20.8951 7.22402 21.436 7 22 7C22.564 7 23.1049 7.22402 23.5037 7.62279L26.1639 10.2821L25.7499 10.2825Z" fill="#4AB7A8"/>
<path d="M15.6231 12.4966L17.2115 10.9079H18.0813C18.4628 10.9083 18.8283 11.0593 19.0991 11.3274L21.1982 13.4266C21.2918 13.5207 21.403 13.5953 21.5255 13.6462C21.6479 13.6972 21.7793 13.7234 21.9119 13.7234C22.0446 13.7234 22.1759 13.6972 22.2984 13.6462C22.4209 13.5953 22.5321 13.5207 22.6256 13.4266L24.733 11.3192C25.0038 11.0508 25.3695 10.9 25.7508 10.8997H26.782L28.3772 12.4949C28.776 12.8937 29 13.4346 29 13.9986C29 14.5626 28.776 15.1035 28.3772 15.5024L26.782 17.0976H25.7499C25.3689 17.0976 25.0029 16.9462 24.7321 16.6781L22.6252 14.5698C22.433 14.3862 22.1773 14.2838 21.9115 14.2838C21.6457 14.2838 21.3901 14.3862 21.1978 14.5698L19.0987 16.669C18.8279 16.9371 18.4624 17.0885 18.0809 17.0885H17.2115L15.6231 15.5041C15.4256 15.3067 15.2689 15.0723 15.162 14.8142C15.055 14.5562 15 14.2797 15 14.0004C15 13.7211 15.055 13.4445 15.162 13.1865C15.2689 12.9285 15.4256 12.6941 15.6231 12.4966Z" fill="#4AB7A8"/>
</g>
<defs>
<filter id="filter0_d_2299_51637" x="0" y="0" width="43" height="30" filterUnits="userSpaceOnUse" color-interpolation-filters="sRGB">
<feFlood flood-opacity="0" result="BackgroundImageFix"/>
<feColorMatrix in="SourceAlpha" type="matrix" values="0 0 0 0 0 0 0 0 0 0 0 0 0 0 0 0 0 0 127 0" result="hardAlpha"/>
<feOffset dy="1"/>
<feGaussianBlur stdDeviation="1"/>
<feColorMatrix type="matrix" values="0 0 0 0 0 0 0 0 0 0 0 0 0 0 0 0 0 0 0.05 0"/>
<feBlend mode="normal" in2="BackgroundImageFix" result="effect1_dropShadow_2299_51637"/>
<feBlend mode="normal" in="SourceGraphic" in2="effect1_dropShadow_2299_51637" result="shape"/>
</filter>
<clipPath id="clip0_2299_51637">
<rect width="39" height="26" fill="white" transform="translate(2 1)"/>
</clipPath>
</defs>
</svg>
