<svg width="43" height="30" viewBox="0 0 43 30" fill="none" xmlns="http://www.w3.org/2000/svg">
<g clip-path="url(#clip0_2299_51630)" filter="url(#filter0_d_2299_51630)">
<path fill-rule="evenodd" clip-rule="evenodd" d="M41 23.75C41 25.5375 39.5375 27 37.75 27H5.25C3.4625 27 2 25.5375 2 23.75V4.25C2 2.4625 3.4625 1 5.25 1H37.75C39.5375 1 41 2.4625 41 4.25V23.75Z" fill="white"/>
<path d="M37.75 1H5.25C3.4625 1 2 2.4625 2 4.25V23.75C2 25.5375 3.4625 27 5.25 27H37.75C39.5375 27 41 25.5375 41 23.75V4.25C41 2.4625 39.5375 1 37.75 1ZM37.75 1.65C39.1839 1.65 40.35 2.8161 40.35 4.25V23.75C40.35 25.1839 39.1839 26.35 37.75 26.35H5.25C3.8161 26.35 2.65 25.1839 2.65 23.75V4.25C2.65 2.8161 3.8161 1.65 5.25 1.65H37.75Z" fill="#E4E4E7"/>
<path fill-rule="evenodd" clip-rule="evenodd" d="M26.9729 17.0291C26.8546 17.3114 26.7371 17.5936 26.6181 17.8802C26.6277 17.8823 26.6356 17.8844 26.6423 17.8861C26.6543 17.8893 26.6627 17.8915 26.6711 17.8911C26.7714 17.8912 26.8717 17.8913 26.972 17.8915C27.524 17.8923 28.0759 17.8931 28.6278 17.8882C28.6692 17.8882 28.7316 17.8367 28.7476 17.7946C28.8658 17.4862 28.979 17.1764 29.0842 16.8637C29.1176 16.7643 29.1662 16.7317 29.2707 16.7324C30.0281 16.7368 30.7863 16.7382 31.5438 16.7317C31.6685 16.7309 31.7179 16.765 31.7404 16.8898C31.7833 17.1272 31.8336 17.3626 31.8841 17.5994C31.9045 17.6949 31.925 17.7906 31.945 17.8867H33.79C33.7873 17.8693 33.7849 17.8525 33.7825 17.8361C33.7773 17.7998 33.7723 17.7656 33.7653 17.7322C33.7035 17.4368 33.6417 17.1415 33.5799 16.8461C33.1214 14.6558 32.6629 12.4653 32.2083 10.2737C32.1858 10.1663 32.1423 10.146 32.0451 10.1467C31.535 10.1504 31.0257 10.1504 30.5157 10.1482C30.0702 10.1467 29.7669 10.3542 29.5964 10.762C29.0836 11.9876 28.5706 13.213 28.0575 14.4383C27.6959 15.3019 27.3344 16.1655 26.9729 17.0291ZM31.0433 13.5748C31.1513 14.0926 31.2598 14.6126 31.3695 15.1376C30.8087 15.1376 30.2733 15.1376 29.7117 15.1369C30.0599 14.1777 30.4031 13.2309 30.7463 12.2841C30.7557 12.2855 30.7652 12.2863 30.7746 12.287C30.8642 12.7157 30.9536 13.1445 31.0433 13.5748Z" fill="#152884"/>
<path fill-rule="evenodd" clip-rule="evenodd" d="M27.081 10.3519C26.965 10.8946 26.8496 11.4308 26.7342 11.9713C26.5144 11.898 26.3055 11.8182 26.0907 11.7587C25.6169 11.6274 25.1337 11.5708 24.6476 11.6651C24.4728 11.6992 24.2928 11.7732 24.147 11.8748C23.8241 12.099 23.814 12.469 24.1281 12.7062C24.3683 12.8876 24.6396 13.0269 24.8979 13.1836C25.2193 13.3781 25.5589 13.5471 25.8607 13.7684C26.6283 14.3314 26.8837 15.1136 26.6232 16.0299C26.378 16.8926 25.7722 17.4099 24.9647 17.7211C24.2246 18.0062 23.4534 18.0469 22.6734 17.9838C22.183 17.9439 21.7005 17.8582 21.234 17.6957C21.1571 17.6689 21.0816 17.6377 20.9953 17.6043C21.1164 17.0355 21.2362 16.4776 21.3522 15.9312C21.6838 16.048 22.0016 16.1815 22.331 16.2715C22.8222 16.405 23.3279 16.4536 23.8292 16.3412C24.0244 16.2976 24.2239 16.2084 24.385 16.0908C24.6861 15.8703 24.7086 15.464 24.4271 15.2188C24.2152 15.0345 23.9627 14.8952 23.7218 14.7464C23.3598 14.523 22.9702 14.338 22.6306 14.0847C21.4974 13.2395 21.6998 11.9626 22.2882 11.1979C22.725 10.6305 23.3242 10.3163 24.0041 10.148C25.0068 9.89988 25.9964 9.97098 26.97 10.3069C27.0056 10.32 27.0382 10.3345 27.081 10.3519Z" fill="#152884"/>
<path fill-rule="evenodd" clip-rule="evenodd" d="M21.2688 10.1607C21.2159 10.4147 21.1651 10.6643 21.1114 10.9131C20.6274 13.176 20.1413 15.4389 19.6625 17.7026C19.6313 17.8499 19.5812 17.9 19.426 17.8963C18.8796 17.8854 18.3333 17.892 17.787 17.892C17.7369 17.892 17.6876 17.892 17.6172 17.892C17.6687 17.6496 17.7166 17.4226 17.7652 17.1962C18.26 14.8839 18.7556 12.5716 19.2489 10.2587C19.2642 10.1869 19.2801 10.1455 19.3672 10.1455C19.9781 10.1491 20.5883 10.1477 21.1992 10.1484C21.2166 10.1499 21.234 10.1549 21.2688 10.1607Z" fill="#152884"/>
<path fill-rule="evenodd" clip-rule="evenodd" d="M9.04281 10.144H9.19154C10.2523 10.144 11.313 10.1433 12.3737 10.144C12.9338 10.144 13.277 10.4299 13.3808 10.9784C13.655 12.4288 13.9293 13.8791 14.2035 15.3294C14.205 15.3381 14.2093 15.3468 14.2231 15.3846C14.2528 15.3193 14.2753 15.275 14.2935 15.2286C14.9465 13.5795 15.6002 11.9303 16.2481 10.2797C16.2909 10.1701 16.3453 10.1397 16.457 10.1404C17.0541 10.1455 17.6512 10.1426 18.2476 10.1426H18.4036C18.3739 10.2202 18.3514 10.2833 18.3253 10.345C17.2892 12.8184 16.2524 15.291 15.2178 17.765C15.1815 17.8521 15.1409 17.8906 15.0393 17.8891C14.4146 17.884 13.79 17.884 13.166 17.8891C13.0681 17.8898 13.0347 17.8586 13.0107 17.7658C12.4855 15.7241 11.9544 13.6839 11.4305 11.6416C11.3514 11.3347 11.1839 11.1221 10.8973 10.9856C10.3226 10.7114 9.7161 10.5373 9.10012 10.3893C9.06965 10.382 9.0399 10.3726 9 10.3617C9.00726 10.3225 9.01306 10.2877 9.01959 10.2529C9.02684 10.2231 9.03337 10.1919 9.04281 10.144Z" fill="#152884"/>
</g>
<defs>
<filter id="filter0_d_2299_51630" x="0" y="0" width="43" height="30" filterUnits="userSpaceOnUse" color-interpolation-filters="sRGB">
<feFlood flood-opacity="0" result="BackgroundImageFix"/>
<feColorMatrix in="SourceAlpha" type="matrix" values="0 0 0 0 0 0 0 0 0 0 0 0 0 0 0 0 0 0 127 0" result="hardAlpha"/>
<feOffset dy="1"/>
<feGaussianBlur stdDeviation="1"/>
<feColorMatrix type="matrix" values="0 0 0 0 0 0 0 0 0 0 0 0 0 0 0 0 0 0 0.05 0"/>
<feBlend mode="normal" in2="BackgroundImageFix" result="effect1_dropShadow_2299_51630"/>
<feBlend mode="normal" in="SourceGraphic" in2="effect1_dropShadow_2299_51630" result="shape"/>
</filter>
<clipPath id="clip0_2299_51630">
<rect width="39" height="26" fill="white" transform="translate(2 1)"/>
</clipPath>
</defs>
</svg>
